<svg xmlns="http://www.w3.org/2000/svg" xmlns:xlink="http://www.w3.org/1999/xlink" width="500" zoomAndPan="magnify" viewBox="0 0 375 374.999991" height="500" preserveAspectRatio="xMidYMid meet" version="1.0"><rect x="-37.5" width="450" fill="rgb(100%, 100%, 100%)" y="-37.499999" height="449.999989" fill-opacity="1"/><rect x="-37.5" width="450" fill="rgb(100%, 100%, 100%)" y="-37.499999" height="449.999989" fill-opacity="1"/><rect x="-37.5" width="450" fill="rgb(100%, 100%, 100%)" y="-37.499999" height="449.999989" fill-opacity="1"/><rect x="-37.5" width="450" fill="rgb(100%, 100%, 100%)" y="-37.499999" height="449.999989" fill-opacity="1"/><path fill="rgb(94.898987%, 94.898987%, 94.898987%)" d="M 375 187.5 C 375 190.570312 374.925781 193.636719 374.773438 196.699219 C 374.625 199.765625 374.398438 202.824219 374.097656 205.878906 C 373.796875 208.933594 373.421875 211.976562 372.96875 215.011719 C 372.519531 218.046875 371.996094 221.070312 371.398438 224.078125 C 370.796875 227.089844 370.125 230.082031 369.378906 233.058594 C 368.636719 236.035156 367.816406 238.992188 366.925781 241.929688 C 366.035156 244.863281 365.074219 247.777344 364.039062 250.667969 C 363.003906 253.554688 361.902344 256.417969 360.726562 259.253906 C 359.554688 262.089844 358.308594 264.890625 356.996094 267.667969 C 355.6875 270.441406 354.308594 273.179688 352.859375 275.886719 C 351.414062 278.59375 349.902344 281.261719 348.324219 283.894531 C 346.746094 286.527344 345.105469 289.117188 343.402344 291.667969 C 341.695312 294.222656 339.929688 296.730469 338.101562 299.195312 C 336.273438 301.660156 334.386719 304.078125 332.4375 306.449219 C 330.492188 308.820312 328.488281 311.144531 326.429688 313.417969 C 324.367188 315.691406 322.253906 317.914062 320.082031 320.082031 C 317.914062 322.253906 315.691406 324.367188 313.417969 326.429688 C 311.144531 328.488281 308.820312 330.492188 306.449219 332.4375 C 304.078125 334.386719 301.660156 336.273438 299.195312 338.101562 C 296.730469 339.929688 294.222656 341.695312 291.667969 343.402344 C 289.117188 345.105469 286.527344 346.746094 283.894531 348.324219 C 281.261719 349.902344 278.59375 351.414062 275.886719 352.859375 C 273.179688 354.308594 270.441406 355.6875 267.667969 356.996094 C 264.890625 358.308594 262.089844 359.554688 259.253906 360.726562 C 256.417969 361.902344 253.554688 363.003906 250.667969 364.039062 C 247.777344 365.074219 244.863281 366.035156 241.929688 366.925781 C 238.992188 367.816406 236.035156 368.636719 233.058594 369.378906 C 230.082031 370.125 227.089844 370.796875 224.078125 371.398438 C 221.070312 371.996094 218.046875 372.519531 215.011719 372.96875 C 211.976562 373.421875 208.933594 373.796875 205.878906 374.097656 C 202.824219 374.398438 199.765625 374.625 196.699219 374.773438 C 193.636719 374.925781 190.570312 375 187.5 375 C 184.429688 375 181.363281 374.925781 178.300781 374.773438 C 175.234375 374.625 172.175781 374.398438 169.121094 374.097656 C 166.066406 373.796875 163.023438 373.421875 159.988281 372.96875 C 156.953125 372.519531 153.929688 371.996094 150.921875 371.398438 C 147.910156 370.796875 144.917969 370.125 141.941406 369.378906 C 138.964844 368.636719 136.007812 367.816406 133.070312 366.925781 C 130.136719 366.035156 127.222656 365.074219 124.332031 364.039062 C 121.445312 363.003906 118.582031 361.902344 115.746094 360.726562 C 112.910156 359.554688 110.105469 358.308594 107.332031 356.996094 C 104.558594 355.6875 101.820312 354.308594 99.113281 352.859375 C 96.40625 351.414062 93.738281 349.902344 91.105469 348.324219 C 88.472656 346.746094 85.882812 345.105469 83.332031 343.402344 C 80.777344 341.695312 78.269531 339.929688 75.804688 338.101562 C 73.339844 336.273438 70.921875 334.386719 68.550781 332.4375 C 66.179688 330.492188 63.855469 328.488281 61.582031 326.429688 C 59.308594 324.367188 57.085938 322.253906 54.917969 320.082031 C 52.746094 317.914062 50.632812 315.691406 48.570312 313.417969 C 46.511719 311.144531 44.507812 308.820312 42.558594 306.449219 C 40.613281 304.078125 38.726562 301.660156 36.898438 299.195312 C 35.070312 296.730469 33.304688 294.222656 31.597656 291.667969 C 29.894531 289.117188 28.253906 286.527344 26.675781 283.894531 C 25.097656 281.261719 23.585938 278.59375 22.140625 275.886719 C 20.691406 273.179688 19.3125 270.441406 18.003906 267.667969 C 16.691406 264.890625 15.445312 262.089844 14.273438 259.253906 C 13.097656 256.417969 11.996094 253.554688 10.960938 250.667969 C 9.925781 247.777344 8.964844 244.863281 8.074219 241.929688 C 7.183594 238.992188 6.363281 236.035156 5.621094 233.058594 C 4.875 230.082031 4.203125 227.089844 3.601562 224.078125 C 3.003906 221.070312 2.480469 218.046875 2.03125 215.011719 C 1.578125 211.976562 1.203125 208.933594 0.902344 205.878906 C 0.601562 202.824219 0.375 199.765625 0.226562 196.699219 C 0.0742188 193.636719 0 190.570312 0 187.5 C 0 184.429688 0.0742188 181.363281 0.226562 178.300781 C 0.375 175.234375 0.601562 172.175781 0.902344 169.121094 C 1.203125 166.066406 1.578125 163.023438 2.03125 159.988281 C 2.480469 156.953125 3.003906 153.929688 3.601562 150.921875 C 4.203125 147.910156 4.875 144.917969 5.621094 141.941406 C 6.363281 138.964844 7.183594 136.007812 8.074219 133.070312 C 8.964844 130.136719 9.925781 127.222656 10.960938 124.332031 C 11.996094 121.445312 13.097656 118.582031 14.273438 115.746094 C 15.445312 112.910156 16.691406 110.105469 18.003906 107.332031 C 19.3125 104.558594 20.691406 101.820312 22.140625 99.113281 C 23.585938 96.40625 25.097656 93.738281 26.675781 91.105469 C 28.253906 88.472656 29.894531 85.882812 31.597656 83.332031 C 33.304688 80.777344 35.070312 78.269531 36.898438 75.804688 C 38.726562 73.339844 40.613281 70.921875 42.558594 68.550781 C 44.507812 66.179688 46.511719 63.855469 48.570312 61.582031 C 50.632812 59.308594 52.746094 57.085938 54.917969 54.917969 C 57.085938 52.746094 59.308594 50.632812 61.582031 48.570312 C 63.855469 46.511719 66.179688 44.507812 68.550781 42.558594 C 70.921875 40.613281 73.339844 38.726562 75.804688 36.898438 C 78.269531 35.070312 80.777344 33.304688 83.332031 31.597656 C 85.882812 29.894531 88.472656 28.253906 91.105469 26.675781 C 93.738281 25.097656 96.40625 23.585938 99.113281 22.140625 C 101.820312 20.691406 104.558594 19.3125 107.332031 18.003906 C 110.105469 16.691406 112.910156 15.445312 115.746094 14.273438 C 118.582031 13.097656 121.445312 11.996094 124.332031 10.960938 C 127.222656 9.925781 130.136719 8.964844 133.070312 8.074219 C 136.007812 7.183594 138.964844 6.363281 141.941406 5.617188 C 144.917969 4.875 147.910156 4.203125 150.921875 3.601562 C 153.929688 3.003906 156.953125 2.480469 159.988281 2.03125 C 163.023438 1.578125 166.066406 1.203125 169.121094 0.902344 C 172.175781 0.601562 175.234375 0.375 178.300781 0.226562 C 181.363281 0.0742188 184.429688 0 187.5 0 C 190.570312 0 193.636719 0.0742188 196.699219 0.226562 C 199.765625 0.375 202.824219 0.601562 205.878906 0.902344 C 208.933594 1.203125 211.976562 1.578125 215.011719 2.03125 C 218.046875 2.480469 221.070312 3.003906 224.078125 3.601562 C 227.089844 4.203125 230.082031 4.875 233.058594 5.617188 C 236.035156 6.363281 238.992188 7.183594 241.929688 8.074219 C 244.863281 8.964844 247.777344 9.925781 250.667969 10.960938 C 253.554688 11.996094 256.417969 13.097656 259.253906 14.273438 C 262.089844 15.445312 264.890625 16.691406 267.667969 18.003906 C 270.441406 19.3125 273.179688 20.691406 275.886719 22.140625 C 278.59375 23.585938 281.261719 25.097656 283.894531 26.675781 C 286.527344 28.253906 289.117188 29.894531 291.667969 31.597656 C 294.222656 33.304688 296.730469 35.070312 299.195312 36.898438 C 301.660156 38.726562 304.078125 40.613281 306.449219 42.558594 C 308.820312 44.507812 311.144531 46.511719 313.417969 48.570312 C 315.691406 50.632812 317.914062 52.746094 320.082031 54.917969 C 322.253906 57.085938 324.367188 59.308594 326.429688 61.582031 C 328.488281 63.855469 330.492188 66.179688 332.4375 68.550781 C 334.386719 70.921875 336.273438 73.339844 338.101562 75.804688 C 339.929688 78.269531 341.695312 80.777344 343.402344 83.332031 C 345.105469 85.882812 346.746094 88.472656 348.324219 91.105469 C 349.902344 93.738281 351.414062 96.40625 352.859375 99.113281 C 354.308594 101.820312 355.6875 104.558594 356.996094 107.332031 C 358.308594 110.105469 359.554688 112.910156 360.726562 115.746094 C 361.902344 118.582031 363.003906 121.445312 364.039062 124.332031 C 365.074219 127.222656 366.035156 130.136719 366.925781 133.070312 C 367.816406 136.007812 368.636719 138.964844 369.378906 141.941406 C 370.125 144.917969 370.796875 147.910156 371.398438 150.921875 C 371.996094 153.929688 372.519531 156.953125 372.96875 159.988281 C 373.421875 163.023438 373.796875 166.066406 374.097656 169.121094 C 374.398438 172.175781 374.625 175.234375 374.773438 178.300781 C 374.925781 181.363281 375 184.429688 375 187.5 Z M 375 187.5 " fill-opacity="1" fill-rule="nonzero"/><path fill="rgb(94.898987%, 94.898987%, 94.898987%)" d="M 63.039062 69.867188 L 26.886719 58.867188 L 63.039062 47.863281 Z M 63.039062 69.867188 " fill-opacity="1" fill-rule="nonzero"/><path fill="rgb(79.998779%, 79.60968%, 79.219055%)" d="M 26.886719 58.867188 L 63.039062 69.867188 L 63.039062 62.949219 Z M 26.886719 58.867188 " fill-opacity="1" fill-rule="nonzero"/><path fill="rgb(27.839661%, 30.979919%, 34.899902%)" d="M 63.039062 47.863281 L 337.480469 47.863281 L 337.480469 69.867188 L 63.039062 69.867188 Z M 63.039062 47.863281 " fill-opacity="1" fill-rule="nonzero"/><path fill="rgb(13.729858%, 18.03894%, 21.958923%)" d="M 63.039062 62.949219 L 337.480469 62.949219 L 337.480469 69.867188 L 63.039062 69.867188 Z M 63.039062 62.949219 " fill-opacity="1" fill-rule="nonzero"/><path fill="rgb(20.779419%, 24.708557%, 28.62854%)" d="M 41.035156 63.167969 L 26.886719 58.867188 L 41.035156 54.539062 Z M 41.035156 63.167969 " fill-opacity="1" fill-rule="nonzero"/><path fill="rgb(13.729858%, 18.03894%, 21.958923%)" d="M 41.035156 63.167969 L 26.886719 58.867188 L 41.035156 60.464844 Z M 41.035156 63.167969 " fill-opacity="1" fill-rule="nonzero"/><path fill="rgb(94.898987%, 94.898987%, 94.898987%)" d="M 337.480469 47.863281 L 350.246094 47.863281 L 350.246094 69.867188 L 337.480469 69.867188 Z M 337.480469 47.863281 " fill-opacity="1" fill-rule="nonzero"/><path fill="rgb(79.998779%, 79.60968%, 79.219055%)" d="M 337.480469 62.949219 L 350.246094 62.949219 L 350.246094 69.867188 L 337.480469 69.867188 Z M 337.480469 62.949219 " fill-opacity="1" fill-rule="nonzero"/><path fill="rgb(96.469116%, 51.368713%, 37.649536%)" d="M 364 69.867188 C 366.8125 69.867188 369.628906 68.792969 371.78125 66.644531 C 373.929688 64.496094 375 61.683594 375 58.863281 C 375 56.050781 373.925781 53.234375 371.78125 51.085938 C 369.628906 48.9375 366.8125 47.867188 364 47.867188 L 350.246094 47.867188 L 350.246094 69.867188 Z M 364 69.867188 " fill-opacity="1" fill-rule="nonzero"/><path fill="rgb(92.939758%, 42.749023%, 27.839661%)" d="M 371.78125 51.085938 C 370.527344 49.835938 369.046875 48.996094 367.476562 48.472656 C 367.851562 49.597656 368.082031 50.765625 368.082031 51.945312 C 368.082031 54.757812 367.007812 57.574219 364.863281 59.726562 C 362.714844 61.871094 359.898438 62.945312 357.082031 62.945312 L 350.25 62.945312 L 350.25 69.867188 L 364 69.867188 C 366.816406 69.867188 369.628906 68.792969 371.78125 66.644531 C 373.929688 64.496094 375.003906 61.679688 375.003906 58.863281 C 375 56.050781 373.925781 53.234375 371.78125 51.085938 Z M 371.78125 51.085938 " fill-opacity="1" fill-rule="nonzero"/><path fill="rgb(56.858826%, 82.749939%, 85.099792%)" d="M 271.074219 0 L 314.636719 0 L 314.636719 301.183594 L 271.074219 301.183594 Z M 271.074219 0 " fill-opacity="1" fill-rule="nonzero"/><path fill="rgb(100%, 100%, 100%)" d="M 271.074219 290.0625 L 282.558594 290.0625 L 282.558594 292.226562 L 271.074219 292.226562 Z M 271.074219 290.0625 " fill-opacity="1" fill-rule="nonzero"/><path fill="rgb(100%, 100%, 100%)" d="M 271.074219 269.984375 L 282.558594 269.984375 L 282.558594 272.148438 L 271.074219 272.148438 Z M 271.074219 269.984375 " fill-opacity="1" fill-rule="nonzero"/><path fill="rgb(100%, 100%, 100%)" d="M 271.074219 249.902344 L 282.558594 249.902344 L 282.558594 252.066406 L 271.074219 252.066406 Z M 271.074219 249.902344 " fill-opacity="1" fill-rule="nonzero"/><path fill="rgb(100%, 100%, 100%)" d="M 271.074219 229.824219 L 282.558594 229.824219 L 282.558594 231.988281 L 271.074219 231.988281 Z M 271.074219 229.824219 " fill-opacity="1" fill-rule="nonzero"/><path fill="rgb(100%, 100%, 100%)" d="M 271.074219 209.75 L 282.558594 209.75 L 282.558594 211.914062 L 271.074219 211.914062 Z M 271.074219 209.75 " fill-opacity="1" fill-rule="nonzero"/><path fill="rgb(100%, 100%, 100%)" d="M 271.074219 189.667969 L 282.558594 189.667969 L 282.558594 191.832031 L 271.074219 191.832031 Z M 271.074219 189.667969 " fill-opacity="1" fill-rule="nonzero"/><path fill="rgb(100%, 100%, 100%)" d="M 271.074219 169.589844 L 282.558594 169.589844 L 282.558594 171.753906 L 271.074219 171.753906 Z M 271.074219 169.589844 " fill-opacity="1" fill-rule="nonzero"/><path fill="rgb(100%, 100%, 100%)" d="M 271.074219 149.511719 L 282.558594 149.511719 L 282.558594 151.671875 L 271.074219 151.671875 Z M 271.074219 149.511719 " fill-opacity="1" fill-rule="nonzero"/><path fill="rgb(100%, 100%, 100%)" d="M 271.074219 129.429688 L 282.558594 129.429688 L 282.558594 131.589844 L 271.074219 131.589844 Z M 271.074219 129.429688 " fill-opacity="1" fill-rule="nonzero"/><path fill="rgb(100%, 100%, 100%)" d="M 271.074219 109.351562 L 282.558594 109.351562 L 282.558594 111.515625 L 271.074219 111.515625 Z M 271.074219 109.351562 " fill-opacity="1" fill-rule="nonzero"/><path fill="rgb(100%, 100%, 100%)" d="M 271.074219 89.273438 L 282.558594 89.273438 L 282.558594 91.4375 L 271.074219 91.4375 Z M 271.074219 89.273438 " fill-opacity="1" fill-rule="nonzero"/><path fill="rgb(100%, 100%, 100%)" d="M 271.074219 59.15625 L 276.8125 59.15625 L 276.8125 61.320312 L 271.074219 61.320312 Z M 271.074219 59.15625 " fill-opacity="1" fill-rule="nonzero"/><path fill="rgb(100%, 100%, 100%)" d="M 271.074219 39.078125 L 277.121094 39.078125 L 277.121094 41.238281 L 271.074219 41.238281 Z M 271.074219 39.078125 " fill-opacity="1" fill-rule="nonzero"/><path fill="rgb(100%, 100%, 100%)" d="M 271.074219 18.996094 L 277.121094 18.996094 L 277.121094 21.15625 L 271.074219 21.15625 Z M 271.074219 18.996094 " fill-opacity="1" fill-rule="nonzero"/><path fill="rgb(100%, 100%, 100%)" d="M 271.074219 280.023438 L 277.121094 280.023438 L 277.121094 282.183594 L 271.074219 282.183594 Z M 271.074219 280.023438 " fill-opacity="1" fill-rule="nonzero"/><path fill="rgb(100%, 100%, 100%)" d="M 271.074219 259.945312 L 277.121094 259.945312 L 277.121094 262.105469 L 271.074219 262.105469 Z M 271.074219 259.945312 " fill-opacity="1" fill-rule="nonzero"/><path fill="rgb(100%, 100%, 100%)" d="M 271.074219 239.863281 L 277.121094 239.863281 L 277.121094 242.027344 L 271.074219 242.027344 Z M 271.074219 239.863281 " fill-opacity="1" fill-rule="nonzero"/><path fill="rgb(100%, 100%, 100%)" d="M 271.074219 219.785156 L 277.121094 219.785156 L 277.121094 221.949219 L 271.074219 221.949219 Z M 271.074219 219.785156 " fill-opacity="1" fill-rule="nonzero"/><path fill="rgb(100%, 100%, 100%)" d="M 271.074219 199.707031 L 277.121094 199.707031 L 277.121094 201.867188 L 271.074219 201.867188 Z M 271.074219 199.707031 " fill-opacity="1" fill-rule="nonzero"/><path fill="rgb(100%, 100%, 100%)" d="M 271.074219 179.628906 L 277.128906 179.628906 L 277.128906 181.792969 L 271.074219 181.792969 Z M 271.074219 179.628906 " fill-opacity="1" fill-rule="nonzero"/><path fill="rgb(100%, 100%, 100%)" d="M 271.074219 159.550781 L 277.121094 159.550781 L 277.121094 161.714844 L 271.074219 161.714844 Z M 271.074219 159.550781 " fill-opacity="1" fill-rule="nonzero"/><path fill="rgb(100%, 100%, 100%)" d="M 271.074219 139.46875 L 277.121094 139.46875 L 277.121094 141.632812 L 271.074219 141.632812 Z M 271.074219 139.46875 " fill-opacity="1" fill-rule="nonzero"/><path fill="rgb(100%, 100%, 100%)" d="M 271.074219 119.390625 L 277.121094 119.390625 L 277.121094 121.554688 L 271.074219 121.554688 Z M 271.074219 119.390625 " fill-opacity="1" fill-rule="nonzero"/><path fill="rgb(100%, 100%, 100%)" d="M 271.074219 99.3125 L 277.121094 99.3125 L 277.121094 101.476562 L 271.074219 101.476562 Z M 271.074219 99.3125 " fill-opacity="1" fill-rule="nonzero"/><path fill="rgb(100%, 100%, 100%)" d="M 271.074219 79.234375 L 277.121094 79.234375 L 277.121094 81.398438 L 271.074219 81.398438 Z M 271.074219 79.234375 " fill-opacity="1" fill-rule="nonzero"/><path fill="rgb(100%, 100%, 100%)" d="M 271.074219 69.195312 L 282.558594 69.195312 L 282.558594 71.359375 L 271.074219 71.359375 Z M 271.074219 69.195312 " fill-opacity="1" fill-rule="nonzero"/><path fill="rgb(100%, 100%, 100%)" d="M 271.074219 49.113281 L 282.558594 49.113281 L 282.558594 51.277344 L 271.074219 51.277344 Z M 271.074219 49.113281 " fill-opacity="1" fill-rule="nonzero"/><path fill="rgb(100%, 100%, 100%)" d="M 271.074219 29.035156 L 282.558594 29.035156 L 282.558594 31.199219 L 271.074219 31.199219 Z M 271.074219 29.035156 " fill-opacity="1" fill-rule="nonzero"/><path fill="rgb(100%, 100%, 100%)" d="M 271.074219 8.957031 L 282.558594 8.957031 L 282.558594 11.121094 L 271.074219 11.121094 Z M 271.074219 8.957031 " fill-opacity="1" fill-rule="nonzero"/><path fill="rgb(100%, 59.999084%, 47.059631%)" d="M 210.042969 201.613281 L 203.304688 201.613281 L 201.339844 211.417969 L 212.007812 211.417969 Z M 210.042969 201.613281 " fill-opacity="1" fill-rule="nonzero"/><path fill="rgb(100%, 59.999084%, 47.059631%)" d="M 187.386719 205.878906 L 181.546875 209.25 L 184.746094 218.726562 L 193.988281 213.390625 Z M 187.386719 205.878906 " fill-opacity="1" fill-rule="nonzero"/><path fill="rgb(100%, 59.999084%, 47.059631%)" d="M 169.894531 220.902344 L 166.527344 226.734375 L 174.035156 233.339844 L 179.367188 224.105469 Z M 169.894531 220.902344 " fill-opacity="1" fill-rule="nonzero"/><path fill="rgb(100%, 59.999084%, 47.059631%)" d="M 162.257812 242.660156 L 162.261719 249.394531 L 172.066406 251.359375 L 172.066406 240.695312 Z M 162.257812 242.660156 " fill-opacity="1" fill-rule="nonzero"/><path fill="rgb(100%, 59.999084%, 47.059631%)" d="M 166.527344 265.316406 L 169.898438 271.152344 L 179.367188 267.949219 L 174.035156 258.710938 Z M 166.527344 265.316406 " fill-opacity="1" fill-rule="nonzero"/><path fill="rgb(100%, 59.999084%, 47.059631%)" d="M 181.546875 282.804688 L 187.386719 286.175781 L 193.988281 278.664062 L 184.75 273.332031 Z M 181.546875 282.804688 " fill-opacity="1" fill-rule="nonzero"/><path fill="rgb(100%, 59.999084%, 47.059631%)" d="M 203.308594 290.4375 L 210.042969 290.4375 L 212.007812 280.636719 L 201.34375 280.636719 Z M 203.308594 290.4375 " fill-opacity="1" fill-rule="nonzero"/><path fill="rgb(100%, 59.999084%, 47.059631%)" d="M 225.964844 286.175781 L 231.796875 282.804688 L 228.601562 273.332031 L 219.359375 278.664062 Z M 225.964844 286.175781 " fill-opacity="1" fill-rule="nonzero"/><path fill="rgb(100%, 59.999084%, 47.059631%)" d="M 243.453125 271.152344 L 246.820312 265.316406 L 239.316406 258.710938 L 233.980469 267.949219 Z M 243.453125 271.152344 " fill-opacity="1" fill-rule="nonzero"/><path fill="rgb(100%, 59.999084%, 47.059631%)" d="M 251.085938 249.394531 L 251.085938 242.660156 L 241.285156 240.695312 L 241.285156 251.359375 Z M 251.085938 249.394531 " fill-opacity="1" fill-rule="nonzero"/><path fill="rgb(100%, 59.999084%, 47.059631%)" d="M 246.820312 226.734375 L 243.453125 220.902344 L 233.980469 224.105469 L 239.316406 233.339844 Z M 246.820312 226.734375 " fill-opacity="1" fill-rule="nonzero"/><path fill="rgb(100%, 59.999084%, 47.059631%)" d="M 231.796875 209.25 L 225.960938 205.882812 L 219.359375 213.390625 L 228.601562 218.722656 Z M 231.796875 209.25 " fill-opacity="1" fill-rule="nonzero"/><path fill="rgb(96.469116%, 51.368713%, 37.649536%)" d="M 206.671875 211.011719 C 187.332031 211.011719 171.65625 226.683594 171.65625 246.027344 C 171.65625 265.371094 187.332031 281.039062 206.671875 281.039062 C 226.015625 281.039062 241.6875 265.371094 241.6875 246.027344 C 241.6875 226.683594 226.015625 211.011719 206.671875 211.011719 Z M 206.671875 255.722656 C 201.328125 255.722656 196.976562 251.375 196.976562 246.027344 C 196.976562 240.675781 201.328125 236.328125 206.671875 236.328125 C 212.023438 236.328125 216.371094 240.675781 216.371094 246.027344 C 216.371094 251.375 212.019531 255.722656 206.671875 255.722656 Z M 206.671875 255.722656 " fill-opacity="1" fill-rule="nonzero"/><path fill="rgb(13.729858%, 18.03894%, 21.958923%)" d="M 206.671875 229.21875 C 197.386719 229.21875 189.867188 236.738281 189.867188 246.027344 C 189.867188 255.3125 197.386719 262.832031 206.671875 262.832031 C 215.957031 262.832031 223.480469 255.3125 223.480469 246.027344 C 223.480469 236.742188 215.957031 229.21875 206.671875 229.21875 Z M 206.671875 254.433594 C 202.039062 254.433594 198.269531 250.667969 198.269531 246.03125 C 198.269531 241.394531 202.039062 237.628906 206.671875 237.628906 C 211.308594 237.628906 215.074219 241.394531 215.074219 246.03125 C 215.074219 250.667969 211.308594 254.433594 206.671875 254.433594 Z M 206.671875 254.433594 " fill-opacity="1" fill-rule="nonzero"/><path fill="rgb(20.779419%, 24.708557%, 28.62854%)" d="M 374.976562 184.589844 L 374.976562 190.410156 C 374.105469 247.898438 347.347656 299.117188 305.855469 332.921875 L 216.839844 332.921875 L 216.839844 128.84375 L 365.636719 128.84375 C 371.425781 146.425781 374.679688 165.144531 374.976562 184.589844 Z M 374.976562 184.589844 " fill-opacity="1" fill-rule="nonzero"/><path fill="rgb(67.059326%, 87.838745%, 89.7995%)" d="M 233.9375 146.15625 L 266.25 146.15625 L 266.25 149.359375 L 233.9375 149.359375 Z M 233.9375 146.15625 " fill-opacity="1" fill-rule="nonzero"/><path fill="rgb(67.059326%, 87.838745%, 89.7995%)" d="M 233.9375 170.753906 L 243.046875 170.753906 L 243.046875 173.957031 L 233.9375 173.957031 Z M 233.9375 170.753906 " fill-opacity="1" fill-rule="nonzero"/><path fill="rgb(96.469116%, 51.368713%, 37.649536%)" d="M 271.882812 146.15625 L 284.730469 146.15625 L 284.730469 149.359375 L 271.882812 149.359375 Z M 271.882812 146.15625 " fill-opacity="1" fill-rule="nonzero"/><path fill="rgb(39.608765%, 41.569519%, 45.098877%)" d="M 245.402344 170.753906 L 278.285156 170.753906 L 278.285156 173.957031 L 245.402344 173.957031 Z M 245.402344 170.753906 " fill-opacity="1" fill-rule="nonzero"/><path fill="rgb(67.059326%, 87.838745%, 89.7995%)" d="M 243.046875 154.5625 L 257.539062 154.5625 L 257.539062 157.765625 L 243.046875 157.765625 Z M 243.046875 154.5625 " fill-opacity="1" fill-rule="nonzero"/><path fill="rgb(67.059326%, 87.838745%, 89.7995%)" d="M 243.046875 195.976562 L 257.539062 195.976562 L 257.539062 199.175781 L 243.046875 199.175781 Z M 243.046875 195.976562 " fill-opacity="1" fill-rule="nonzero"/><path fill="rgb(90.19928%, 89.7995%, 89.7995%)" d="M 233.9375 245.789062 L 257.539062 245.789062 L 257.539062 248.992188 L 233.9375 248.992188 Z M 233.9375 245.789062 " fill-opacity="1" fill-rule="nonzero"/><path fill="rgb(67.059326%, 87.838745%, 89.7995%)" d="M 243.046875 204.386719 L 249.023438 204.386719 L 249.023438 207.585938 L 243.046875 207.585938 Z M 243.046875 204.386719 " fill-opacity="1" fill-rule="nonzero"/><path fill="rgb(67.059326%, 87.838745%, 89.7995%)" d="M 260.960938 195.976562 L 298.816406 195.976562 L 298.816406 199.175781 L 260.960938 199.175781 Z M 260.960938 195.976562 " fill-opacity="1" fill-rule="nonzero"/><path fill="rgb(67.059326%, 87.838745%, 89.7995%)" d="M 258.535156 221.195312 L 295.242188 221.195312 L 295.242188 224.394531 L 258.535156 224.394531 Z M 258.535156 221.195312 " fill-opacity="1" fill-rule="nonzero"/><path fill="rgb(67.059326%, 87.838745%, 89.7995%)" d="M 250.75 312.410156 L 263.921875 312.410156 L 263.921875 315.613281 L 250.75 315.613281 Z M 250.75 312.410156 " fill-opacity="1" fill-rule="nonzero"/><path fill="rgb(90.19928%, 89.7995%, 89.7995%)" d="M 299.6875 254.191406 L 313.269531 254.191406 L 313.269531 257.394531 L 299.6875 257.394531 Z M 299.6875 254.191406 " fill-opacity="1" fill-rule="nonzero"/><path fill="rgb(90.19928%, 89.7995%, 89.7995%)" d="M 261.355469 295.597656 L 286.929688 295.597656 L 286.929688 298.800781 L 261.355469 298.800781 Z M 261.355469 295.597656 " fill-opacity="1" fill-rule="nonzero"/><path fill="rgb(90.19928%, 89.7995%, 89.7995%)" d="M 269.644531 312.410156 L 299.699219 312.410156 L 299.699219 315.613281 L 269.644531 315.613281 Z M 269.644531 312.410156 " fill-opacity="1" fill-rule="nonzero"/><path fill="rgb(96.469116%, 51.368713%, 37.649536%)" d="M 323.675781 271 L 334.601562 271 L 334.601562 274.199219 L 323.675781 274.199219 Z M 323.675781 271 " fill-opacity="1" fill-rule="nonzero"/><path fill="rgb(96.469116%, 51.368713%, 37.649536%)" d="M 301.886719 221.195312 L 329.140625 221.195312 L 329.140625 224.394531 L 301.886719 224.394531 Z M 301.886719 221.195312 " fill-opacity="1" fill-rule="nonzero"/><path fill="rgb(39.608765%, 41.569519%, 45.098877%)" d="M 303.113281 195.976562 L 330.34375 195.976562 L 330.34375 199.175781 L 303.113281 199.175781 Z M 303.113281 195.976562 " fill-opacity="1" fill-rule="nonzero"/><path fill="rgb(39.608765%, 41.569519%, 45.098877%)" d="M 335.886719 195.976562 L 352.558594 195.976562 L 352.558594 199.175781 L 335.886719 199.175781 Z M 335.886719 195.976562 " fill-opacity="1" fill-rule="nonzero"/><path fill="rgb(39.608765%, 41.569519%, 45.098877%)" d="M 243.046875 179.164062 L 264.667969 179.164062 L 264.667969 182.367188 L 243.046875 182.367188 Z M 243.046875 179.164062 " fill-opacity="1" fill-rule="nonzero"/><path fill="rgb(39.608765%, 41.569519%, 45.098877%)" d="M 243.046875 187.570312 L 273.707031 187.570312 L 273.707031 190.773438 L 243.046875 190.773438 Z M 243.046875 187.570312 " fill-opacity="1" fill-rule="nonzero"/><path fill="rgb(39.608765%, 41.569519%, 45.098877%)" d="M 251.234375 204.386719 L 286.371094 204.386719 L 286.371094 207.585938 L 251.234375 207.585938 Z M 251.234375 204.386719 " fill-opacity="1" fill-rule="nonzero"/><path fill="rgb(90.19928%, 89.7995%, 89.7995%)" d="M 243.046875 262.597656 L 278.179688 262.597656 L 278.179688 265.800781 L 243.046875 265.800781 Z M 243.046875 262.597656 " fill-opacity="1" fill-rule="nonzero"/><path fill="rgb(39.608765%, 41.569519%, 45.098877%)" d="M 243.046875 271 L 281.625 271 L 281.625 274.199219 L 243.046875 274.199219 Z M 243.046875 271 " fill-opacity="1" fill-rule="nonzero"/><path fill="rgb(96.469116%, 51.368713%, 37.649536%)" d="M 275.914062 304.011719 L 344.21875 304.011719 L 344.21875 307.207031 L 275.914062 307.207031 Z M 275.914062 304.011719 " fill-opacity="1" fill-rule="nonzero"/><path fill="rgb(39.608765%, 41.569519%, 45.098877%)" d="M 308.851562 312.410156 L 323.8125 312.410156 L 323.8125 315.613281 L 308.851562 315.613281 Z M 308.851562 312.410156 " fill-opacity="1" fill-rule="nonzero"/><path fill="rgb(39.608765%, 41.569519%, 45.098877%)" d="M 285.777344 271 L 319.25 271 L 319.25 274.199219 L 285.777344 274.199219 Z M 285.777344 271 " fill-opacity="1" fill-rule="nonzero"/><path fill="rgb(39.608765%, 41.569519%, 45.098877%)" d="M 296.664062 295.597656 L 330.128906 295.597656 L 330.128906 298.800781 L 296.664062 298.800781 Z M 296.664062 295.597656 " fill-opacity="1" fill-rule="nonzero"/><path fill="rgb(67.059326%, 87.838745%, 89.7995%)" d="M 251.234375 212.789062 L 262.652344 212.789062 L 262.652344 215.992188 L 251.234375 215.992188 Z M 251.234375 212.789062 " fill-opacity="1" fill-rule="nonzero"/><path fill="rgb(67.059326%, 87.838745%, 89.7995%)" d="M 251.234375 229.597656 L 263.652344 229.597656 L 263.652344 232.800781 L 251.234375 232.800781 Z M 251.234375 229.597656 " fill-opacity="1" fill-rule="nonzero"/><path fill="rgb(67.059326%, 87.838745%, 89.7995%)" d="M 243.046875 254.191406 L 295.242188 254.191406 L 295.242188 257.394531 L 243.046875 257.394531 Z M 243.046875 254.191406 " fill-opacity="1" fill-rule="nonzero"/><path fill="rgb(67.059326%, 87.838745%, 89.7995%)" d="M 233.9375 295.597656 L 257.335938 295.597656 L 257.335938 298.800781 L 233.9375 298.800781 Z M 233.9375 295.597656 " fill-opacity="1" fill-rule="nonzero"/><path fill="rgb(67.059326%, 87.838745%, 89.7995%)" d="M 243.046875 304.007812 L 269.703125 304.007812 L 269.703125 307.207031 L 243.046875 307.207031 Z M 243.046875 304.007812 " fill-opacity="1" fill-rule="nonzero"/><path fill="rgb(90.19928%, 89.7995%, 89.7995%)" d="M 266.246094 212.789062 L 334.847656 212.789062 L 334.847656 215.992188 L 266.246094 215.992188 Z M 266.246094 212.789062 " fill-opacity="1" fill-rule="nonzero"/><path fill="rgb(39.608765%, 41.569519%, 45.098877%)" d="M 250.34375 279.40625 L 272.273438 279.40625 L 272.273438 282.613281 L 250.34375 282.613281 Z M 250.34375 279.40625 " fill-opacity="1" fill-rule="nonzero"/><path fill="rgb(90.19928%, 89.7995%, 89.7995%)" d="M 279.804688 279.40625 L 340.457031 279.40625 L 340.457031 282.613281 L 279.804688 282.613281 Z M 279.804688 279.40625 " fill-opacity="1" fill-rule="nonzero"/><path fill="rgb(96.469116%, 51.368713%, 37.649536%)" d="M 293.605469 204.386719 L 316.726562 204.386719 L 316.726562 207.585938 L 293.605469 207.585938 Z M 293.605469 204.386719 " fill-opacity="1" fill-rule="nonzero"/><path fill="rgb(39.608765%, 41.569519%, 45.098877%)" d="M 276.972656 187.570312 L 307.625 187.570312 L 307.625 190.773438 L 276.972656 190.773438 Z M 276.972656 187.570312 " fill-opacity="1" fill-rule="nonzero"/><path fill="rgb(96.469116%, 51.368713%, 37.649536%)" d="M 309.746094 187.570312 L 334.941406 187.570312 L 334.941406 190.773438 L 309.746094 190.773438 Z M 309.746094 187.570312 " fill-opacity="1" fill-rule="nonzero"/><path fill="rgb(90.19928%, 89.7995%, 89.7995%)" d="M 344.222656 187.570312 L 357.871094 187.570312 L 357.871094 190.773438 L 344.222656 190.773438 Z M 344.222656 187.570312 " fill-opacity="1" fill-rule="nonzero"/><path fill="rgb(90.19928%, 89.7995%, 89.7995%)" d="M 271.730469 179.164062 L 304.933594 179.164062 L 304.933594 182.367188 L 271.730469 182.367188 Z M 271.730469 179.164062 " fill-opacity="1" fill-rule="nonzero"/><path fill="rgb(90.19928%, 89.7995%, 89.7995%)" d="M 262.898438 154.5625 L 295.769531 154.5625 L 295.769531 157.765625 L 262.898438 157.765625 Z M 262.898438 154.5625 " fill-opacity="1" fill-rule="nonzero"/><path fill="rgb(13.729858%, 18.03894%, 21.958923%)" d="M 365.636719 128.84375 L 216.839844 128.84375 L 216.839844 109.476562 L 358.027344 109.476562 C 360.914062 115.753906 363.453125 122.21875 365.636719 128.84375 Z M 365.636719 128.84375 " fill-opacity="1" fill-rule="nonzero"/><path fill="rgb(13.729858%, 18.03894%, 21.958923%)" d="M 26.886719 161.949219 C 26.886719 158.285156 29.875 155.285156 33.542969 155.285156 L 142.644531 155.285156 C 146.304688 155.285156 149.296875 158.285156 149.296875 161.949219 L 149.296875 326.269531 C 149.296875 329.929688 146.304688 332.917969 142.644531 332.917969 L 33.542969 332.917969 C 29.875 332.917969 26.886719 329.929688 26.886719 326.269531 Z M 26.886719 161.949219 " fill-opacity="1" fill-rule="nonzero"/><path fill="rgb(27.839661%, 30.979919%, 34.899902%)" d="M 81.339844 325.496094 C 79.714844 325.496094 78.382812 324.167969 78.382812 322.535156 L 78.382812 321.800781 C 78.382812 320.167969 79.714844 318.835938 81.339844 318.835938 L 94.847656 318.835938 C 96.472656 318.835938 97.808594 320.167969 97.808594 321.800781 L 97.808594 322.535156 C 97.808594 324.167969 96.472656 325.496094 94.847656 325.496094 Z M 81.339844 325.496094 " fill-opacity="1" fill-rule="nonzero"/><path fill="rgb(27.839661%, 30.979919%, 34.899902%)" d="M 88.078125 167.011719 C 86.394531 167.011719 85.050781 165.65625 85.050781 163.957031 C 85.050781 162.292969 86.394531 160.910156 88.078125 160.910156 C 89.757812 160.910156 91.132812 162.292969 91.132812 163.957031 C 91.132812 165.65625 89.757812 167.011719 88.078125 167.011719 Z M 88.078125 167.011719 " fill-opacity="1" fill-rule="nonzero"/><path fill="rgb(85.099792%, 84.709167%, 84.309387%)" d="M 88.089844 165.238281 C 87.382812 165.238281 86.828125 164.667969 86.828125 163.960938 C 86.828125 163.257812 87.386719 162.691406 88.089844 162.691406 C 88.792969 162.691406 89.367188 163.257812 89.367188 163.960938 C 89.367188 164.667969 88.792969 165.238281 88.089844 165.238281 Z M 88.089844 165.238281 " fill-opacity="1" fill-rule="nonzero"/><path fill="rgb(100%, 100%, 100%)" d="M 33.824219 172.640625 L 142.34375 172.640625 L 142.34375 311.414062 L 33.824219 311.414062 Z M 33.824219 172.640625 " fill-opacity="1" fill-rule="nonzero"/><path fill="rgb(96.469116%, 51.368713%, 37.649536%)" d="M 38.105469 196.265625 L 59.78125 196.265625 L 59.78125 217.933594 L 38.105469 217.933594 Z M 38.105469 196.265625 " fill-opacity="1" fill-rule="nonzero"/><path fill="rgb(67.059326%, 87.838745%, 89.7995%)" d="M 64.109375 196.265625 L 85.785156 196.265625 L 85.785156 217.933594 L 64.109375 217.933594 Z M 64.109375 196.265625 " fill-opacity="1" fill-rule="nonzero"/><path fill="rgb(100%, 83.918762%, 50.19989%)" d="M 90.113281 196.265625 L 111.789062 196.265625 L 111.789062 217.933594 L 90.113281 217.933594 Z M 90.113281 196.265625 " fill-opacity="1" fill-rule="nonzero"/><path fill="rgb(27.839661%, 30.979919%, 34.899902%)" d="M 116.121094 196.265625 L 137.792969 196.265625 L 137.792969 217.933594 L 116.121094 217.933594 Z M 116.121094 196.265625 " fill-opacity="1" fill-rule="nonzero"/><path fill="rgb(100%, 83.918762%, 50.19989%)" d="M 38.105469 222.265625 L 59.78125 222.265625 L 59.78125 243.941406 L 38.105469 243.941406 Z M 38.105469 222.265625 " fill-opacity="1" fill-rule="nonzero"/><path fill="rgb(27.839661%, 30.979919%, 34.899902%)" d="M 64.109375 222.265625 L 85.785156 222.265625 L 85.785156 243.941406 L 64.109375 243.941406 Z M 64.109375 222.265625 " fill-opacity="1" fill-rule="nonzero"/><path fill="rgb(67.059326%, 87.838745%, 89.7995%)" d="M 90.113281 222.265625 L 111.789062 222.265625 L 111.789062 243.941406 L 90.113281 243.941406 Z M 90.113281 222.265625 " fill-opacity="1" fill-rule="nonzero"/><path fill="rgb(96.469116%, 51.368713%, 37.649536%)" d="M 116.121094 222.265625 L 137.792969 222.265625 L 137.792969 243.941406 L 116.121094 243.941406 Z M 116.121094 222.265625 " fill-opacity="1" fill-rule="nonzero"/><path fill="rgb(96.469116%, 51.368713%, 37.649536%)" d="M 64.109375 248.269531 L 85.785156 248.269531 L 85.785156 269.945312 L 64.109375 269.945312 Z M 64.109375 248.269531 " fill-opacity="1" fill-rule="nonzero"/><path fill="rgb(79.998779%, 79.60968%, 79.219055%)" d="M 90.113281 248.269531 L 111.789062 248.269531 L 111.789062 269.945312 L 90.113281 269.945312 Z M 90.113281 248.269531 " fill-opacity="1" fill-rule="nonzero"/><path fill="rgb(100%, 83.918762%, 50.19989%)" d="M 116.121094 248.269531 L 137.792969 248.269531 L 137.792969 269.945312 L 116.121094 269.945312 Z M 116.121094 248.269531 " fill-opacity="1" fill-rule="nonzero"/><path fill="rgb(96.469116%, 51.368713%, 37.649536%)" d="M 38.105469 285.21875 L 59.78125 285.21875 L 59.78125 306.894531 L 38.105469 306.894531 Z M 38.105469 285.21875 " fill-opacity="1" fill-rule="nonzero"/><path fill="rgb(79.998779%, 79.60968%, 79.219055%)" d="M 64.109375 285.21875 L 85.785156 285.21875 L 85.785156 306.894531 L 64.109375 306.894531 Z M 64.109375 285.21875 " fill-opacity="1" fill-rule="nonzero"/><path fill="rgb(90.19928%, 89.7995%, 89.7995%)" d="M 33.824219 172.640625 L 142.34375 172.640625 L 142.34375 191.742188 L 33.824219 191.742188 Z M 33.824219 172.640625 " fill-opacity="1" fill-rule="nonzero"/><path fill="rgb(76.858521%, 92.939758%, 94.509888%)" d="M 104.65625 320.644531 L 187.5 320.644531 L 187.5 375 L 104.65625 375 Z M 104.65625 320.644531 " fill-opacity="1" fill-rule="nonzero"/><path fill="rgb(96.469116%, 51.368713%, 37.649536%)" d="M 104.65625 311.414062 L 187.5 311.414062 L 187.5 320.644531 L 104.65625 320.644531 Z M 104.65625 311.414062 " fill-opacity="1" fill-rule="nonzero"/><path fill="rgb(96.469116%, 51.368713%, 37.649536%)" d="M 132.890625 357.378906 L 159.261719 357.378906 L 159.261719 366.609375 L 132.890625 366.609375 Z M 132.890625 357.378906 " fill-opacity="1" fill-rule="nonzero"/><path fill="rgb(100%, 100%, 100%)" d="M 138.949219 360.8125 L 153.207031 360.8125 L 153.207031 363.191406 L 138.949219 363.191406 Z M 138.949219 360.8125 " fill-opacity="1" fill-rule="nonzero"/><path fill="rgb(56.858826%, 82.749939%, 85.099792%)" d="M 162.890625 329.027344 L 172.121094 329.027344 L 172.121094 338.261719 L 162.890625 338.261719 Z M 162.890625 329.027344 " fill-opacity="1" fill-rule="nonzero"/><path fill="rgb(100%, 100%, 100%)" d="M 168.886719 332.789062 C 168.886719 333.6875 168.265625 334.414062 167.507812 334.414062 C 166.75 334.414062 166.132812 333.6875 166.132812 332.789062 C 166.132812 331.898438 166.75 331.167969 167.507812 331.167969 C 168.265625 331.171875 168.886719 331.898438 168.886719 332.789062 Z M 168.886719 332.789062 " fill-opacity="1" fill-rule="nonzero"/><path fill="rgb(100%, 100%, 100%)" d="M 168.238281 334.792969 C 168.015625 334.898438 167.765625 334.957031 167.507812 334.957031 C 167.246094 334.957031 167 334.894531 166.773438 334.792969 C 165.78125 334.96875 165.046875 335.484375 164.957031 336.117188 L 170.058594 336.117188 C 169.972656 335.484375 169.230469 334.96875 168.238281 334.792969 Z M 168.238281 334.792969 " fill-opacity="1" fill-rule="nonzero"/><path fill="rgb(100%, 100%, 100%)" d="M 120.03125 329.027344 L 162.890625 329.027344 L 162.890625 338.261719 L 120.03125 338.261719 Z M 120.03125 329.027344 " fill-opacity="1" fill-rule="nonzero"/><path fill="rgb(79.998779%, 79.60968%, 79.219055%)" d="M 128.398438 332.457031 L 154.523438 332.457031 L 154.523438 334.832031 L 128.398438 334.832031 Z M 128.398438 332.457031 " fill-opacity="1" fill-rule="nonzero"/><path fill="rgb(56.858826%, 82.749939%, 85.099792%)" d="M 162.890625 341.554688 L 172.121094 341.554688 L 172.121094 350.789062 L 162.890625 350.789062 Z M 162.890625 341.554688 " fill-opacity="1" fill-rule="nonzero"/><path fill="rgb(100%, 100%, 100%)" d="M 168.789062 345.742188 L 168.789062 344.980469 C 168.789062 344.273438 168.210938 343.699219 167.507812 343.699219 C 166.800781 343.699219 166.222656 344.273438 166.222656 344.980469 L 166.222656 345.742188 L 165.753906 345.742188 L 165.753906 348.644531 L 169.261719 348.644531 L 169.261719 345.742188 Z M 168.378906 345.742188 L 166.632812 345.742188 L 166.632812 344.980469 C 166.632812 344.5 167.027344 344.113281 167.507812 344.113281 C 167.984375 344.113281 168.378906 344.503906 168.378906 344.980469 Z M 168.378906 345.742188 " fill-opacity="1" fill-rule="nonzero"/><path fill="rgb(100%, 100%, 100%)" d="M 120.03125 341.554688 L 162.890625 341.554688 L 162.890625 350.789062 L 120.03125 350.789062 Z M 120.03125 341.554688 " fill-opacity="1" fill-rule="nonzero"/><path fill="rgb(27.839661%, 30.979919%, 34.899902%)" d="M 130.78125 346.171875 C 130.78125 346.328125 130.75 346.480469 130.691406 346.625 C 130.628906 346.773438 130.542969 346.902344 130.429688 347.011719 C 130.320312 347.125 130.191406 347.210938 130.046875 347.269531 C 129.898438 347.332031 129.746094 347.359375 129.589844 347.363281 C 129.433594 347.359375 129.28125 347.332031 129.132812 347.269531 C 128.988281 347.210938 128.859375 347.125 128.75 347.011719 C 128.636719 346.902344 128.550781 346.773438 128.492188 346.625 C 128.429688 346.480469 128.398438 346.328125 128.398438 346.171875 C 128.398438 346.011719 128.429688 345.863281 128.492188 345.714844 C 128.550781 345.570312 128.636719 345.441406 128.75 345.328125 C 128.859375 345.21875 128.988281 345.132812 129.132812 345.070312 C 129.28125 345.011719 129.433594 344.980469 129.589844 344.980469 C 129.746094 344.980469 129.898438 345.011719 130.046875 345.070312 C 130.191406 345.132812 130.320312 345.21875 130.429688 345.328125 C 130.542969 345.441406 130.628906 345.570312 130.691406 345.714844 C 130.75 345.863281 130.78125 346.011719 130.78125 346.171875 Z M 130.78125 346.171875 " fill-opacity="1" fill-rule="nonzero"/><path fill="rgb(27.839661%, 30.979919%, 34.899902%)" d="M 134.335938 344.980469 C 133.683594 344.980469 133.148438 345.511719 133.148438 346.167969 C 133.148438 346.828125 133.683594 347.359375 134.335938 347.359375 C 134.996094 347.359375 135.523438 346.828125 135.523438 346.167969 C 135.523438 345.519531 134.996094 344.980469 134.335938 344.980469 Z M 134.335938 344.980469 " fill-opacity="1" fill-rule="nonzero"/><path fill="rgb(27.839661%, 30.979919%, 34.899902%)" d="M 140.277344 346.171875 C 140.277344 346.328125 140.246094 346.480469 140.1875 346.625 C 140.125 346.773438 140.039062 346.902344 139.929688 347.011719 C 139.816406 347.125 139.6875 347.210938 139.542969 347.269531 C 139.394531 347.332031 139.246094 347.359375 139.085938 347.363281 C 138.929688 347.359375 138.777344 347.332031 138.632812 347.269531 C 138.484375 347.210938 138.355469 347.125 138.246094 347.011719 C 138.132812 346.902344 138.046875 346.773438 137.988281 346.625 C 137.925781 346.480469 137.894531 346.328125 137.894531 346.171875 C 137.894531 346.011719 137.925781 345.863281 137.988281 345.714844 C 138.046875 345.570312 138.132812 345.441406 138.246094 345.328125 C 138.355469 345.21875 138.484375 345.132812 138.632812 345.070312 C 138.777344 345.011719 138.929688 344.980469 139.085938 344.980469 C 139.246094 344.980469 139.394531 345.011719 139.542969 345.070312 C 139.6875 345.132812 139.816406 345.21875 139.929688 345.328125 C 140.039062 345.441406 140.125 345.570312 140.1875 345.714844 C 140.246094 345.863281 140.277344 346.011719 140.277344 346.171875 Z M 140.277344 346.171875 " fill-opacity="1" fill-rule="nonzero"/><path fill="rgb(27.839661%, 30.979919%, 34.899902%)" d="M 145.027344 346.171875 C 145.027344 346.328125 145 346.480469 144.9375 346.625 C 144.878906 346.773438 144.792969 346.902344 144.679688 347.011719 C 144.570312 347.125 144.441406 347.210938 144.292969 347.269531 C 144.148438 347.332031 143.996094 347.359375 143.839844 347.363281 C 143.679688 347.359375 143.53125 347.332031 143.382812 347.269531 C 143.238281 347.210938 143.109375 347.125 142.996094 347.011719 C 142.886719 346.902344 142.800781 346.773438 142.738281 346.625 C 142.679688 346.480469 142.648438 346.328125 142.648438 346.171875 C 142.648438 346.011719 142.679688 345.863281 142.738281 345.714844 C 142.800781 345.570312 142.886719 345.441406 142.996094 345.328125 C 143.109375 345.21875 143.238281 345.132812 143.382812 345.070312 C 143.53125 345.011719 143.679688 344.980469 143.839844 344.980469 C 143.996094 344.980469 144.148438 345.011719 144.292969 345.070312 C 144.441406 345.132812 144.570312 345.21875 144.679688 345.328125 C 144.792969 345.441406 144.878906 345.570312 144.9375 345.714844 C 145 345.863281 145.027344 346.011719 145.027344 346.171875 Z M 145.027344 346.171875 " fill-opacity="1" fill-rule="nonzero"/><path fill="rgb(27.839661%, 30.979919%, 34.899902%)" d="M 149.777344 346.171875 C 149.777344 346.328125 149.75 346.480469 149.6875 346.625 C 149.628906 346.773438 149.542969 346.902344 149.429688 347.011719 C 149.316406 347.125 149.1875 347.210938 149.042969 347.269531 C 148.898438 347.332031 148.746094 347.359375 148.589844 347.363281 C 148.429688 347.359375 148.277344 347.332031 148.132812 347.269531 C 147.988281 347.210938 147.859375 347.125 147.746094 347.011719 C 147.636719 346.902344 147.550781 346.773438 147.488281 346.625 C 147.429688 346.480469 147.398438 346.328125 147.398438 346.171875 C 147.398438 346.011719 147.429688 345.863281 147.488281 345.714844 C 147.550781 345.570312 147.636719 345.441406 147.746094 345.328125 C 147.859375 345.21875 147.988281 345.132812 148.132812 345.070312 C 148.277344 345.011719 148.429688 344.980469 148.589844 344.980469 C 148.746094 344.980469 148.898438 345.011719 149.042969 345.070312 C 149.1875 345.132812 149.316406 345.21875 149.429688 345.328125 C 149.542969 345.441406 149.628906 345.570312 149.6875 345.714844 C 149.75 345.863281 149.777344 346.011719 149.777344 346.171875 Z M 149.777344 346.171875 " fill-opacity="1" fill-rule="nonzero"/><path fill="rgb(27.839661%, 30.979919%, 34.899902%)" d="M 154.523438 346.171875 C 154.523438 346.328125 154.492188 346.480469 154.433594 346.625 C 154.375 346.773438 154.289062 346.902344 154.175781 347.011719 C 154.0625 347.125 153.933594 347.210938 153.789062 347.269531 C 153.644531 347.332031 153.492188 347.359375 153.335938 347.363281 C 153.175781 347.359375 153.023438 347.332031 152.878906 347.269531 C 152.734375 347.210938 152.605469 347.125 152.492188 347.011719 C 152.382812 346.902344 152.296875 346.773438 152.234375 346.625 C 152.175781 346.480469 152.144531 346.328125 152.144531 346.171875 C 152.144531 346.011719 152.175781 345.863281 152.234375 345.714844 C 152.296875 345.570312 152.382812 345.441406 152.492188 345.328125 C 152.605469 345.21875 152.734375 345.132812 152.878906 345.070312 C 153.023438 345.011719 153.175781 344.980469 153.335938 344.980469 C 153.492188 344.980469 153.644531 345.011719 153.789062 345.070312 C 153.933594 345.132812 154.0625 345.21875 154.175781 345.328125 C 154.289062 345.441406 154.375 345.570312 154.433594 345.714844 C 154.492188 345.863281 154.523438 346.011719 154.523438 346.171875 Z M 154.523438 346.171875 " fill-opacity="1" fill-rule="nonzero"/><path fill="rgb(27.839661%, 30.979919%, 34.899902%)" d="M 42.644531 165.628906 C 42.34375 165.628906 42.046875 165.496094 41.847656 165.242188 C 41.503906 164.800781 41.578125 164.167969 42.019531 163.824219 L 85.179688 130.0625 C 86.015625 129.414062 87.015625 129.023438 88.074219 128.945312 C 89.128906 128.875 90.179688 129.105469 91.101562 129.628906 L 131.632812 152.628906 C 132.117188 152.902344 132.289062 153.519531 132.011719 154.003906 C 131.738281 154.488281 131.121094 154.660156 130.636719 154.382812 L 90.105469 131.382812 C 89.53125 131.058594 88.882812 130.914062 88.222656 130.960938 C 87.5625 131.007812 86.941406 131.25 86.421875 131.65625 L 43.261719 165.414062 C 43.082031 165.558594 42.859375 165.628906 42.644531 165.628906 Z M 42.644531 165.628906 " fill-opacity="1" fill-rule="nonzero"/><path fill="rgb(96.469116%, 51.368713%, 37.649536%)" d="M 33.0625 164.578125 L 120.847656 153.496094 L 123.238281 172.449219 L 35.453125 183.527344 Z M 33.0625 164.578125 " fill-opacity="1" fill-rule="nonzero"/><path fill="rgb(100%, 100%, 100%)" d="M 118.617188 157.601562 L 120.0625 169.050781 L 37.703125 179.445312 L 36.257812 167.996094 Z M 118.617188 157.601562 " fill-opacity="1" fill-rule="nonzero"/><path fill="rgb(79.998779%, 79.60968%, 79.219055%)" d="M 40.742188 172.03125 L 64.933594 168.980469 L 65.234375 171.355469 L 41.039062 174.40625 Z M 40.742188 172.03125 " fill-opacity="1" fill-rule="nonzero"/><path fill="rgb(96.469116%, 51.368713%, 37.649536%)" d="M 120.855469 153.496094 L 140.726562 150.988281 L 143.117188 169.9375 L 123.246094 172.445312 Z M 120.855469 153.496094 " fill-opacity="1" fill-rule="nonzero"/><path fill="rgb(100%, 100%, 100%)" d="M 137.179688 164.71875 L 134.859375 162.917969 C 134.800781 162.875 134.726562 162.847656 134.648438 162.859375 C 134.566406 162.871094 134.5 162.910156 134.457031 162.96875 L 134.375 163.074219 L 133.714844 162.5625 C 134.144531 161.863281 134.347656 161.023438 134.238281 160.136719 C 133.980469 158.09375 132.113281 156.644531 130.0625 156.902344 C 128.019531 157.160156 126.570312 159.03125 126.828125 161.074219 C 127.085938 163.121094 128.953125 164.574219 131 164.3125 C 131.875 164.203125 132.644531 163.796875 133.210938 163.207031 L 133.871094 163.714844 L 133.792969 163.820312 C 133.746094 163.875 133.722656 163.949219 133.734375 164.03125 C 133.742188 164.109375 133.785156 164.179688 133.84375 164.222656 L 136.164062 166.023438 C 136.328125 166.152344 136.542969 166.21875 136.769531 166.1875 C 136.996094 166.160156 137.191406 166.042969 137.324219 165.875 C 137.449219 165.710938 137.519531 165.492188 137.492188 165.265625 C 137.464844 165.042969 137.347656 164.847656 137.179688 164.71875 Z M 130.921875 163.679688 C 129.226562 163.890625 127.675781 162.6875 127.464844 160.992188 C 127.25 159.296875 128.453125 157.753906 130.148438 157.539062 C 131.84375 157.324219 133.390625 158.523438 133.605469 160.21875 C 133.820312 161.917969 132.617188 163.46875 130.921875 163.679688 Z M 130.921875 163.679688 " fill-opacity="1" fill-rule="nonzero"/><path fill="rgb(100%, 72.549438%, 34.899902%)" d="M 88.085938 134.582031 C 81.125 134.582031 75.464844 128.917969 75.464844 121.960938 C 75.464844 120.964844 76.273438 120.160156 77.265625 120.160156 C 78.261719 120.160156 79.070312 120.964844 79.070312 121.960938 C 79.070312 126.929688 83.113281 130.976562 88.085938 130.976562 C 93.054688 130.976562 97.097656 126.929688 97.097656 121.960938 C 97.097656 116.992188 93.054688 112.945312 88.085938 112.945312 C 87.089844 112.945312 86.28125 112.136719 86.28125 111.144531 L 86.28125 106.027344 C 86.28125 105.035156 87.089844 104.226562 88.085938 104.226562 C 89.082031 104.226562 89.886719 105.03125 89.886719 106.027344 L 89.886719 109.46875 C 95.996094 110.34375 100.703125 115.613281 100.703125 121.960938 C 100.703125 128.917969 95.042969 134.582031 88.085938 134.582031 Z M 88.085938 134.582031 " fill-opacity="1" fill-rule="nonzero"/><path fill="rgb(13.729858%, 18.03894%, 21.958923%)" d="M 88.085938 107.832031 C 85.378906 107.832031 83.179688 105.632812 83.179688 102.925781 C 83.179688 100.226562 85.382812 98.023438 88.085938 98.023438 C 90.789062 98.023438 92.988281 100.226562 92.988281 102.925781 C 92.988281 105.628906 90.789062 107.832031 88.085938 107.832031 Z M 88.085938 101.628906 C 87.371094 101.628906 86.789062 102.210938 86.789062 102.925781 C 86.789062 103.644531 87.367188 104.226562 88.085938 104.226562 C 88.800781 104.226562 89.382812 103.644531 89.382812 102.925781 C 89.382812 102.210938 88.800781 101.628906 88.085938 101.628906 Z M 88.085938 101.628906 " fill-opacity="1" fill-rule="nonzero"/><path fill="rgb(39.608765%, 41.569519%, 45.098877%)" d="M 88.085938 103.9375 C 87.527344 103.9375 87.074219 103.484375 87.074219 102.929688 L 87.074219 47.863281 C 87.074219 47.304688 87.527344 46.851562 88.085938 46.851562 C 88.640625 46.851562 89.09375 47.304688 89.09375 47.863281 L 89.09375 102.929688 C 89.09375 103.484375 88.644531 103.9375 88.085938 103.9375 Z M 88.085938 103.9375 " fill-opacity="1" fill-rule="nonzero"/><path fill="rgb(27.839661%, 30.979919%, 34.899902%)" d="M 88.082031 130.972656 C 87.476562 131.046875 86.898438 131.277344 86.421875 131.652344 L 83.695312 133.785156 C 82.976562 133.523438 82.296875 133.195312 81.664062 132.820312 L 84.808594 130.351562 C 85.816406 130.757812 86.925781 130.972656 88.082031 130.972656 Z M 88.082031 130.972656 " fill-opacity="1" fill-rule="nonzero"/><path fill="rgb(96.469116%, 51.368713%, 37.649536%)" d="M 275.6875 271 L 374.761719 271 L 374.761719 332.921875 L 275.6875 332.921875 Z M 275.6875 271 " fill-opacity="1" fill-rule="nonzero"/><path fill="rgb(100%, 100%, 100%)" d="M 325.222656 316.386719 C 317.269531 316.386719 310.796875 309.914062 310.796875 301.957031 C 310.796875 294.003906 317.269531 287.53125 325.222656 287.53125 C 333.179688 287.53125 339.648438 294.003906 339.648438 301.957031 C 339.648438 309.914062 333.179688 316.386719 325.222656 316.386719 Z M 325.222656 288.464844 C 317.78125 288.464844 311.726562 294.515625 311.726562 301.957031 C 311.726562 309.402344 317.78125 315.457031 325.222656 315.457031 C 332.664062 315.457031 338.71875 309.402344 338.71875 301.957031 C 338.722656 294.515625 332.664062 288.464844 325.222656 288.464844 Z M 325.222656 288.464844 " fill-opacity="1" fill-rule="nonzero"/><path fill="rgb(100%, 100%, 100%)" d="M 322.542969 297.316406 L 330.589844 301.957031 L 322.542969 306.609375 Z M 322.542969 297.316406 " fill-opacity="1" fill-rule="nonzero"/><path fill="rgb(20.779419%, 24.708557%, 28.62854%)" d="M 275.6875 332.921875 L 374.757812 332.921875 L 374.757812 351.5 L 275.6875 351.5 Z M 275.6875 332.921875 " fill-opacity="1" fill-rule="nonzero"/><path fill="rgb(79.998779%, 79.60968%, 79.219055%)" d="M 349.164062 342.210938 C 349.164062 341.585938 349.4375 340.894531 350.136719 340.894531 C 350.832031 340.894531 351.113281 341.585938 351.113281 342.210938 C 351.113281 342.832031 350.835938 343.527344 350.136719 343.527344 C 349.4375 343.527344 349.164062 342.828125 349.164062 342.210938 Z M 350.789062 342.210938 C 350.789062 341.699219 350.621094 341.175781 350.136719 341.175781 C 349.648438 341.175781 349.488281 341.699219 349.488281 342.210938 C 349.488281 342.71875 349.648438 343.246094 350.136719 343.246094 C 350.621094 343.246094 350.789062 342.71875 350.789062 342.210938 Z M 350.789062 342.210938 " fill-opacity="1" fill-rule="nonzero"/><path fill="rgb(79.998779%, 79.60968%, 79.219055%)" d="M 351.417969 343.109375 L 351.605469 342.910156 C 351.753906 343.109375 352.015625 343.246094 352.316406 343.246094 C 352.691406 343.246094 352.910156 343.0625 352.910156 342.765625 C 352.910156 342.449219 352.652344 342.316406 352.277344 342.316406 C 352.171875 342.316406 352.054688 342.316406 352.015625 342.320312 L 352.015625 342.023438 C 352.058594 342.03125 352.175781 342.03125 352.277344 342.03125 C 352.597656 342.03125 352.871094 341.90625 352.871094 341.613281 C 352.871094 341.328125 352.613281 341.175781 352.300781 341.175781 C 352.023438 341.175781 351.8125 341.277344 351.628906 341.484375 L 351.453125 341.285156 C 351.640625 341.058594 351.929688 340.890625 352.328125 340.890625 C 352.816406 340.890625 353.1875 341.140625 353.1875 341.566406 C 353.1875 341.9375 352.878906 342.125 352.640625 342.160156 C 352.871094 342.183594 353.230469 342.375 353.230469 342.789062 C 353.230469 343.214844 352.886719 343.527344 352.320312 343.527344 C 351.890625 343.527344 351.578125 343.335938 351.417969 343.109375 Z M 351.417969 343.109375 " fill-opacity="1" fill-rule="nonzero"/><path fill="rgb(79.998779%, 79.60968%, 79.219055%)" d="M 353.667969 341.820312 C 353.667969 341.707031 353.761719 341.609375 353.878906 341.609375 C 353.992188 341.609375 354.089844 341.707031 354.089844 341.820312 C 354.089844 341.929688 353.996094 342.03125 353.878906 342.03125 C 353.761719 342.03125 353.667969 341.929688 353.667969 341.820312 Z M 353.667969 343.308594 C 353.667969 343.195312 353.761719 343.101562 353.878906 343.101562 C 353.992188 343.101562 354.089844 343.195312 354.089844 343.308594 C 354.089844 343.425781 353.996094 343.519531 353.878906 343.519531 C 353.761719 343.519531 353.667969 343.425781 353.667969 343.308594 Z M 353.667969 343.308594 " fill-opacity="1" fill-rule="nonzero"/><path fill="rgb(79.998779%, 79.60968%, 79.219055%)" d="M 355.636719 343.480469 L 355.636719 342.835938 L 354.421875 342.835938 L 354.421875 342.570312 L 355.515625 340.933594 L 355.949219 340.933594 L 355.949219 342.558594 L 356.3125 342.558594 L 356.3125 342.835938 L 355.949219 342.835938 L 355.949219 343.480469 Z M 355.636719 341.226562 L 354.738281 342.558594 L 355.636719 342.558594 Z M 355.636719 341.226562 " fill-opacity="1" fill-rule="nonzero"/><path fill="rgb(79.998779%, 79.60968%, 79.219055%)" d="M 356.632812 342.835938 C 356.632812 342.492188 356.925781 342.261719 357.242188 342.167969 C 356.949219 342.082031 356.679688 341.890625 356.679688 341.554688 C 356.679688 341.097656 357.125 340.890625 357.546875 340.890625 C 357.96875 340.890625 358.425781 341.097656 358.425781 341.554688 C 358.425781 341.886719 358.148438 342.082031 357.855469 342.167969 C 358.171875 342.257812 358.460938 342.496094 358.460938 342.835938 C 358.460938 343.265625 358.050781 343.523438 357.546875 343.523438 C 357.046875 343.527344 356.632812 343.269531 356.632812 342.835938 Z M 358.140625 342.800781 C 358.140625 342.464844 357.707031 342.324219 357.546875 342.3125 C 357.394531 342.328125 356.957031 342.464844 356.957031 342.800781 C 356.957031 343.078125 357.230469 343.246094 357.546875 343.246094 C 357.863281 343.246094 358.140625 343.078125 358.140625 342.800781 Z M 358.105469 341.597656 C 358.105469 341.332031 357.855469 341.175781 357.546875 341.175781 C 357.234375 341.175781 356.996094 341.332031 356.996094 341.597656 C 356.996094 341.910156 357.394531 342.007812 357.546875 342.035156 C 357.707031 342.007812 358.105469 341.910156 358.105469 341.597656 Z M 358.105469 341.597656 " fill-opacity="1" fill-rule="nonzero"/><path fill="rgb(79.998779%, 79.60968%, 79.219055%)" d="M 291.984375 342.210938 C 291.984375 341.585938 292.257812 340.894531 292.960938 340.894531 C 293.65625 340.894531 293.9375 341.585938 293.9375 342.210938 C 293.9375 342.832031 293.660156 343.527344 292.960938 343.527344 C 292.261719 343.527344 291.984375 342.828125 291.984375 342.210938 Z M 293.609375 342.210938 C 293.609375 341.699219 293.449219 341.175781 292.960938 341.175781 C 292.476562 341.175781 292.308594 341.699219 292.308594 342.210938 C 292.308594 342.71875 292.472656 343.246094 292.960938 343.246094 C 293.449219 343.246094 293.609375 342.71875 293.609375 342.210938 Z M 293.609375 342.210938 " fill-opacity="1" fill-rule="nonzero"/><path fill="rgb(79.998779%, 79.60968%, 79.219055%)" d="M 294.8125 343.480469 L 294.8125 341.347656 L 294.402344 341.78125 L 294.210938 341.589844 L 294.851562 340.929688 L 295.128906 340.929688 L 295.128906 343.480469 Z M 294.8125 343.480469 " fill-opacity="1" fill-rule="nonzero"/><path fill="rgb(79.998779%, 79.60968%, 79.219055%)" d="M 295.660156 341.820312 C 295.660156 341.707031 295.753906 341.609375 295.867188 341.609375 C 295.980469 341.609375 296.078125 341.707031 296.078125 341.820312 C 296.078125 341.929688 295.980469 342.03125 295.867188 342.03125 C 295.753906 342.03125 295.660156 341.929688 295.660156 341.820312 Z M 295.660156 343.308594 C 295.660156 343.195312 295.753906 343.101562 295.867188 343.101562 C 295.980469 343.101562 296.078125 343.195312 296.078125 343.308594 C 296.078125 343.425781 295.980469 343.519531 295.867188 343.519531 C 295.753906 343.519531 295.660156 343.425781 295.660156 343.308594 Z M 295.660156 343.308594 " fill-opacity="1" fill-rule="nonzero"/><path fill="rgb(79.998779%, 79.60968%, 79.219055%)" d="M 296.972656 343.480469 L 296.972656 341.347656 L 296.5625 341.78125 L 296.371094 341.589844 L 297.011719 340.929688 L 297.285156 340.929688 L 297.285156 343.480469 Z M 296.972656 343.480469 " fill-opacity="1" fill-rule="nonzero"/><path fill="rgb(79.998779%, 79.60968%, 79.219055%)" d="M 298.050781 343.480469 L 299.078125 341.214844 L 297.703125 341.214844 L 297.703125 340.929688 L 299.449219 340.929688 L 299.449219 341.144531 L 298.402344 343.476562 Z M 298.050781 343.480469 " fill-opacity="1" fill-rule="nonzero"/><path fill="rgb(79.998779%, 79.60968%, 79.219055%)" d="M 346.199219 341.398438 L 319.441406 341.398438 L 319.441406 343.019531 L 346.199219 343.019531 C 346.640625 343.019531 347.007812 342.660156 347.007812 342.207031 C 347.007812 341.761719 346.640625 341.398438 346.199219 341.398438 Z M 346.199219 341.398438 " fill-opacity="1" fill-rule="nonzero"/><path fill="rgb(56.858826%, 82.749939%, 85.099792%)" d="M 320.246094 342.210938 C 320.246094 342.660156 319.878906 343.019531 319.441406 343.019531 L 304.25 343.019531 C 303.808594 343.019531 303.441406 342.660156 303.441406 342.210938 C 303.441406 341.765625 303.808594 341.398438 304.25 341.398438 L 319.441406 341.398438 C 319.878906 341.398438 320.246094 341.761719 320.246094 342.210938 Z M 320.246094 342.210938 " fill-opacity="1" fill-rule="nonzero"/><path fill="rgb(100%, 100%, 100%)" d="M 321.707031 342.207031 C 321.707031 342.507812 321.648438 342.796875 321.53125 343.078125 C 321.417969 343.355469 321.253906 343.601562 321.042969 343.8125 C 320.828125 344.027344 320.582031 344.1875 320.304688 344.304688 C 320.027344 344.417969 319.738281 344.476562 319.4375 344.476562 C 319.136719 344.476562 318.847656 344.417969 318.570312 344.304688 C 318.289062 344.1875 318.046875 344.027344 317.832031 343.8125 C 317.621094 343.601562 317.457031 343.355469 317.339844 343.078125 C 317.226562 342.796875 317.167969 342.507812 317.167969 342.207031 C 317.167969 341.90625 317.226562 341.617188 317.339844 341.339844 C 317.457031 341.0625 317.621094 340.816406 317.832031 340.605469 C 318.046875 340.390625 318.289062 340.226562 318.570312 340.113281 C 318.847656 339.996094 319.136719 339.941406 319.4375 339.941406 C 319.738281 339.941406 320.027344 339.996094 320.304688 340.113281 C 320.582031 340.226562 320.828125 340.390625 321.042969 340.605469 C 321.253906 340.816406 321.417969 341.0625 321.53125 341.339844 C 321.648438 341.617188 321.707031 341.90625 321.707031 342.207031 Z M 321.707031 342.207031 " fill-opacity="1" fill-rule="nonzero"/><path fill="rgb(79.998779%, 79.60968%, 79.219055%)" d="M 281.152344 339.691406 L 285.519531 342.210938 L 281.152344 344.730469 Z M 281.152344 339.691406 " fill-opacity="1" fill-rule="nonzero"/><path fill="rgb(79.998779%, 79.60968%, 79.219055%)" d="M 364.914062 340.722656 L 366.984375 340.722656 L 366.984375 343.695312 L 364.914062 343.695312 Z M 364.914062 340.722656 " fill-opacity="1" fill-rule="nonzero"/><path fill="rgb(79.998779%, 79.60968%, 79.219055%)" d="M 369.292969 345.457031 L 366.984375 343.695312 L 366.984375 340.722656 L 369.292969 338.964844 Z M 369.292969 345.457031 " fill-opacity="1" fill-rule="nonzero"/><path fill="rgb(100%, 83.918762%, 50.19989%)" d="M 194.085938 144.710938 L 284.351562 144.710938 L 284.351562 164.054688 L 194.085938 164.054688 Z M 194.085938 144.710938 " fill-opacity="1" fill-rule="nonzero"/><path fill="rgb(100%, 72.549438%, 34.899902%)" d="M 174.746094 144.710938 L 194.085938 144.710938 L 194.085938 164.054688 L 174.746094 164.054688 Z M 174.746094 144.710938 " fill-opacity="1" fill-rule="nonzero"/><path fill="rgb(100%, 72.549438%, 34.899902%)" d="M 284.351562 144.710938 L 303.695312 144.710938 L 303.695312 164.054688 L 284.351562 164.054688 Z M 284.351562 144.710938 " fill-opacity="1" fill-rule="nonzero"/><path fill="rgb(100%, 100%, 100%)" d="M 202.144531 153.417969 L 276.292969 153.417969 L 276.292969 155.351562 L 202.144531 155.351562 Z M 202.144531 153.417969 " fill-opacity="1" fill-rule="nonzero"/><path fill="rgb(100%, 100%, 100%)" d="M 181.0625 150.511719 L 187.765625 154.382812 L 181.0625 158.25 Z M 181.0625 150.511719 " fill-opacity="1" fill-rule="nonzero"/><path fill="rgb(100%, 100%, 100%)" d="M 290.757812 152.171875 L 293.84375 152.171875 L 293.84375 156.59375 L 290.757812 156.59375 Z M 290.757812 152.171875 " fill-opacity="1" fill-rule="nonzero"/><path fill="rgb(100%, 100%, 100%)" d="M 297.289062 159.21875 L 293.84375 156.59375 L 293.84375 152.171875 L 297.289062 149.546875 Z M 297.289062 159.21875 " fill-opacity="1" fill-rule="nonzero"/><path fill="rgb(100%, 72.549438%, 34.899902%)" d="M 224.875 154.382812 C 224.875 154.894531 224.773438 155.390625 224.578125 155.863281 C 224.382812 156.335938 224.101562 156.753906 223.738281 157.117188 C 223.378906 157.480469 222.960938 157.761719 222.484375 157.957031 C 222.011719 158.152344 221.519531 158.25 221.003906 158.25 C 220.492188 158.25 220 158.152344 219.523438 157.957031 C 219.050781 157.761719 218.632812 157.480469 218.269531 157.117188 C 217.90625 156.753906 217.628906 156.335938 217.429688 155.863281 C 217.234375 155.390625 217.136719 154.894531 217.136719 154.382812 C 217.136719 153.871094 217.234375 153.375 217.429688 152.902344 C 217.628906 152.429688 217.90625 152.011719 218.269531 151.648438 C 218.632812 151.285156 219.050781 151.003906 219.523438 150.808594 C 220 150.613281 220.492188 150.515625 221.003906 150.515625 C 221.519531 150.515625 222.011719 150.613281 222.484375 150.808594 C 222.960938 151.003906 223.378906 151.285156 223.738281 151.648438 C 224.101562 152.011719 224.382812 152.429688 224.578125 152.902344 C 224.773438 153.375 224.875 153.871094 224.875 154.382812 Z M 224.875 154.382812 " fill-opacity="1" fill-rule="nonzero"/></svg>