<svg xmlns="http://www.w3.org/2000/svg" xmlns:xlink="http://www.w3.org/1999/xlink" width="500" zoomAndPan="magnify" viewBox="0 0 375 374.999991" height="500" preserveAspectRatio="xMidYMid meet" version="1.0"><defs><clipPath id="id1"><path d="M 2.578125 117 L 31 117 L 31 135 L 2.578125 135 Z M 2.578125 117 " clip-rule="nonzero"/></clipPath><clipPath id="id2"><path d="M 2.578125 126 L 31 126 L 31 135 L 2.578125 135 Z M 2.578125 126 " clip-rule="nonzero"/></clipPath><clipPath id="id3"><path d="M 2.578125 122 L 14 122 L 14 130 L 2.578125 130 Z M 2.578125 122 " clip-rule="nonzero"/></clipPath><clipPath id="id4"><path d="M 2.578125 126 L 14 126 L 14 130 L 2.578125 130 Z M 2.578125 126 " clip-rule="nonzero"/></clipPath><clipPath id="id5"><path d="M 2.578125 168 L 372 168 L 372 205 L 2.578125 205 Z M 2.578125 168 " clip-rule="nonzero"/></clipPath></defs><path fill="rgb(96.469116%, 51.368713%, 37.649536%)" d="M 361.886719 200.519531 C 361.890625 203.375 361.820312 206.226562 361.679688 209.082031 C 361.539062 211.933594 361.328125 214.78125 361.046875 217.621094 C 360.769531 220.464844 360.417969 223.296875 360 226.121094 C 359.582031 228.945312 359.09375 231.757812 358.535156 234.558594 C 357.980469 237.359375 357.355469 240.144531 356.660156 242.914062 C 355.96875 245.683594 355.207031 248.4375 354.378906 251.167969 C 353.546875 253.902344 352.652344 256.609375 351.691406 259.300781 C 350.730469 261.988281 349.703125 264.652344 348.609375 267.289062 C 347.519531 269.929688 346.363281 272.539062 345.140625 275.121094 C 343.921875 277.699219 342.636719 280.25 341.292969 282.769531 C 339.945312 285.289062 338.539062 287.769531 337.070312 290.21875 C 335.605469 292.667969 334.078125 295.082031 332.492188 297.457031 C 330.90625 299.828125 329.261719 302.164062 327.5625 304.457031 C 325.859375 306.75 324.105469 309 322.292969 311.207031 C 320.480469 313.414062 318.617188 315.578125 316.699219 317.691406 C 314.785156 319.808594 312.816406 321.875 310.796875 323.894531 C 308.777344 325.914062 306.710938 327.882812 304.597656 329.800781 C 302.480469 331.71875 300.320312 333.582031 298.113281 335.394531 C 295.90625 337.207031 293.65625 338.960938 291.363281 340.664062 C 289.070312 342.363281 286.738281 344.007812 284.363281 345.59375 C 281.988281 347.179688 279.578125 348.707031 277.128906 350.175781 C 274.683594 351.644531 272.199219 353.050781 269.679688 354.398438 C 267.164062 355.742188 264.613281 357.027344 262.035156 358.246094 C 259.453125 359.46875 256.84375 360.625 254.207031 361.71875 C 251.570312 362.8125 248.90625 363.839844 246.21875 364.800781 C 243.53125 365.761719 240.820312 366.65625 238.089844 367.488281 C 235.355469 368.316406 232.605469 369.078125 229.835938 369.769531 C 227.066406 370.464844 224.28125 371.089844 221.484375 371.648438 C 218.683594 372.203125 215.871094 372.691406 213.046875 373.113281 C 210.222656 373.53125 207.390625 373.878906 204.550781 374.160156 C 201.707031 374.441406 198.863281 374.648438 196.011719 374.789062 C 193.160156 374.929688 190.308594 375 187.453125 375 C 184.597656 375 181.746094 374.929688 178.894531 374.789062 C 176.042969 374.648438 173.195312 374.441406 170.355469 374.160156 C 167.511719 373.878906 164.679688 373.53125 161.855469 373.113281 C 159.03125 372.691406 156.222656 372.203125 153.421875 371.648438 C 150.621094 371.089844 147.835938 370.464844 145.066406 369.769531 C 142.296875 369.078125 139.546875 368.316406 136.816406 367.488281 C 134.082031 366.65625 131.375 365.761719 128.6875 364.800781 C 126 363.839844 123.335938 362.8125 120.699219 361.71875 C 118.058594 360.625 115.453125 359.46875 112.871094 358.246094 C 110.289062 357.027344 107.742188 355.742188 105.222656 354.398438 C 102.707031 353.050781 100.222656 351.644531 97.773438 350.175781 C 95.324219 348.707031 92.914062 347.179688 90.539062 345.59375 C 88.167969 344.007812 85.832031 342.363281 83.539062 340.664062 C 81.246094 338.960938 78.996094 337.207031 76.789062 335.394531 C 74.582031 333.582031 72.421875 331.71875 70.308594 329.800781 C 68.191406 327.882812 66.125 325.914062 64.105469 323.894531 C 62.089844 321.875 60.121094 319.808594 58.203125 317.691406 C 56.285156 315.578125 54.421875 313.414062 52.609375 311.207031 C 50.800781 309 49.042969 306.75 47.34375 304.457031 C 45.644531 302.164062 44 299.828125 42.414062 297.457031 C 40.828125 295.082031 39.300781 292.667969 37.832031 290.21875 C 36.363281 287.769531 34.957031 285.289062 33.613281 282.769531 C 32.265625 280.25 30.984375 277.699219 29.761719 275.121094 C 28.542969 272.539062 27.386719 269.929688 26.292969 267.289062 C 25.199219 264.652344 24.175781 261.988281 23.210938 259.300781 C 22.25 256.613281 21.355469 253.902344 20.527344 251.167969 C 19.699219 248.4375 18.9375 245.683594 18.242188 242.914062 C 17.550781 240.144531 16.925781 237.359375 16.367188 234.558594 C 15.808594 231.757812 15.320312 228.945312 14.902344 226.121094 C 14.484375 223.296875 14.136719 220.464844 13.855469 217.621094 C 13.574219 214.78125 13.367188 211.933594 13.226562 209.082031 C 13.085938 206.226562 13.015625 203.375 13.015625 200.519531 C 13.015625 197.664062 13.085938 194.808594 13.226562 191.957031 C 13.367188 189.105469 13.574219 186.257812 13.855469 183.417969 C 14.136719 180.574219 14.484375 177.742188 14.902344 174.917969 C 15.320312 172.09375 15.808594 169.28125 16.367188 166.480469 C 16.925781 163.679688 17.550781 160.894531 18.242188 158.125 C 18.9375 155.355469 19.699219 152.601562 20.527344 149.871094 C 21.355469 147.136719 22.25 144.425781 23.210938 141.738281 C 24.175781 139.050781 25.199219 136.386719 26.292969 133.75 C 27.386719 131.109375 28.542969 128.5 29.761719 125.917969 C 30.984375 123.335938 32.265625 120.789062 33.613281 118.269531 C 34.957031 115.75 36.363281 113.265625 37.832031 110.816406 C 39.300781 108.367188 40.828125 105.957031 42.414062 103.582031 C 44 101.207031 45.644531 98.875 47.34375 96.582031 C 49.042969 94.289062 50.800781 92.035156 52.609375 89.828125 C 54.421875 87.621094 56.285156 85.460938 58.203125 83.34375 C 60.121094 81.230469 62.089844 79.160156 64.105469 77.140625 C 66.125 75.125 68.191406 73.15625 70.308594 71.238281 C 72.421875 69.320312 74.582031 67.457031 76.789062 65.644531 C 78.996094 63.832031 81.246094 62.074219 83.539062 60.375 C 85.832031 58.671875 88.167969 57.03125 90.539062 55.445312 C 92.914062 53.855469 95.324219 52.328125 97.773438 50.863281 C 100.222656 49.394531 102.707031 47.988281 105.222656 46.640625 C 107.742188 45.292969 110.289062 44.011719 112.871094 42.789062 C 115.453125 41.570312 118.058594 40.414062 120.699219 39.320312 C 123.335938 38.226562 126 37.199219 128.6875 36.238281 C 131.375 35.277344 134.082031 34.378906 136.816406 33.550781 C 139.546875 32.722656 142.296875 31.960938 145.066406 31.265625 C 147.835938 30.574219 150.621094 29.949219 153.421875 29.390625 C 156.222656 28.832031 159.03125 28.347656 161.855469 27.925781 C 164.679688 27.507812 167.511719 27.160156 170.355469 26.878906 C 173.195312 26.597656 176.042969 26.386719 178.894531 26.25 C 181.746094 26.109375 184.597656 26.039062 187.453125 26.039062 C 190.308594 26.039062 193.160156 26.109375 196.011719 26.25 C 198.863281 26.386719 201.707031 26.597656 204.550781 26.878906 C 207.390625 27.160156 210.222656 27.507812 213.046875 27.925781 C 215.871094 28.347656 218.683594 28.832031 221.484375 29.390625 C 224.28125 29.949219 227.066406 30.574219 229.835938 31.265625 C 232.605469 31.960938 235.355469 32.722656 238.089844 33.550781 C 240.820312 34.378906 243.53125 35.277344 246.21875 36.238281 C 248.90625 37.199219 251.570312 38.226562 254.207031 39.320312 C 256.84375 40.414062 259.453125 41.570312 262.035156 42.789062 C 264.613281 44.011719 267.164062 45.292969 269.679688 46.640625 C 272.199219 47.988281 274.683594 49.394531 277.128906 50.863281 C 279.578125 52.328125 281.988281 53.855469 284.363281 55.445312 C 286.738281 57.03125 289.070312 58.671875 291.363281 60.375 C 293.65625 62.074219 295.90625 63.832031 298.113281 65.644531 C 300.320312 67.457031 302.480469 69.320312 304.597656 71.238281 C 306.710938 73.15625 308.777344 75.125 310.796875 77.140625 C 312.816406 79.160156 314.785156 81.230469 316.699219 83.34375 C 318.617188 85.460938 320.480469 87.621094 322.292969 89.828125 C 324.105469 92.035156 325.859375 94.289062 327.5625 96.582031 C 329.261719 98.875 330.90625 101.207031 332.492188 103.582031 C 334.078125 105.957031 335.605469 108.367188 337.070312 110.816406 C 338.539062 113.265625 339.945312 115.75 341.292969 118.269531 C 342.636719 120.789062 343.921875 123.335938 345.140625 125.917969 C 346.363281 128.5 347.519531 131.109375 348.609375 133.75 C 349.703125 136.386719 350.730469 139.050781 351.691406 141.738281 C 352.652344 144.425781 353.546875 147.136719 354.378906 149.871094 C 355.207031 152.601562 355.96875 155.355469 356.660156 158.125 C 357.355469 160.894531 357.980469 163.679688 358.535156 166.480469 C 359.09375 169.28125 359.582031 172.09375 360 174.917969 C 360.417969 177.742188 360.769531 180.574219 361.046875 183.417969 C 361.328125 186.257812 361.539062 189.105469 361.679688 191.957031 C 361.820312 194.808594 361.890625 197.664062 361.886719 200.519531 Z M 361.886719 200.519531 " fill-opacity="1" fill-rule="nonzero"/><path fill="rgb(92.939758%, 42.749023%, 27.839661%)" d="M 59.398438 318.984375 C 91.265625 353.425781 136.835938 375 187.453125 375 C 238.070312 375 283.640625 353.425781 315.503906 318.984375 Z M 59.398438 318.984375 " fill-opacity="1" fill-rule="nonzero"/><path fill="rgb(100%, 100%, 100%)" d="M 326.0625 271.539062 C 326.0625 273.113281 325.460938 274.6875 324.257812 275.890625 C 323.054688 277.09375 321.480469 277.699219 319.902344 277.699219 L 55 277.699219 C 53.421875 277.699219 51.847656 277.09375 50.644531 275.890625 C 49.445312 274.6875 48.839844 273.113281 48.839844 271.539062 L 48.839844 253.050781 L 326.0625 253.050781 Z M 326.0625 271.539062 " fill-opacity="1" fill-rule="nonzero"/><path fill="rgb(13.729858%, 18.03894%, 21.958923%)" d="M 326.0625 75.5 C 326.0625 73.929688 325.460938 72.351562 324.257812 71.148438 C 323.054688 69.941406 321.480469 69.34375 319.902344 69.34375 L 55 69.34375 C 53.421875 69.34375 51.847656 69.941406 50.644531 71.148438 C 49.445312 72.351562 48.839844 73.925781 48.839844 75.5 L 48.839844 253.050781 L 326.0625 253.050781 Z M 326.0625 75.5 " fill-opacity="1" fill-rule="nonzero"/><path fill="rgb(100%, 100%, 100%)" d="M 62.703125 83.207031 L 312.203125 83.207031 L 312.203125 239.183594 L 62.703125 239.183594 Z M 62.703125 83.207031 " fill-opacity="1" fill-rule="nonzero"/><path fill="rgb(94.898987%, 94.898987%, 94.898987%)" d="M 225.957031 314.671875 L 148.945312 314.671875 L 153.128906 277.699219 L 221.777344 277.699219 Z M 225.957031 314.671875 " fill-opacity="1" fill-rule="nonzero"/><path fill="rgb(100%, 100%, 100%)" d="M 241.359375 318.984375 L 133.542969 318.984375 L 133.542969 317.136719 C 133.542969 316.503906 133.785156 315.875 134.269531 315.394531 C 134.75 314.910156 135.382812 314.671875 136.011719 314.671875 L 238.890625 314.671875 C 239.519531 314.671875 240.15625 314.914062 240.632812 315.394531 C 241.117188 315.875 241.355469 316.503906 241.355469 317.136719 L 241.355469 318.984375 Z M 241.359375 318.984375 " fill-opacity="1" fill-rule="nonzero"/><path fill="rgb(90.19928%, 89.7995%, 89.7995%)" d="M 225.957031 314.671875 L 221.777344 277.699219 L 153.128906 277.699219 L 188.945312 314.671875 Z M 225.957031 314.671875 " fill-opacity="1" fill-rule="nonzero"/><g clip-path="url(#id1)"><path fill="rgb(94.898987%, 94.898987%, 94.898987%)" d="M 30.929688 134.542969 L 2.953125 126.027344 L 30.929688 117.507812 Z M 30.929688 134.542969 " fill-opacity="1" fill-rule="nonzero"/></g><g clip-path="url(#id2)"><path fill="rgb(79.998779%, 79.60968%, 79.219055%)" d="M 2.953125 126.027344 L 30.929688 134.542969 L 30.929688 129.1875 Z M 2.953125 126.027344 " fill-opacity="1" fill-rule="nonzero"/></g><path fill="rgb(100%, 83.918762%, 50.19989%)" d="M 30.929688 117.507812 L 342.914062 117.507812 L 342.914062 134.542969 L 30.929688 134.542969 Z M 30.929688 117.507812 " fill-opacity="1" fill-rule="nonzero"/><path fill="rgb(100%, 72.549438%, 34.899902%)" d="M 30.929688 129.1875 L 342.914062 129.1875 L 342.914062 134.542969 L 30.929688 134.542969 Z M 30.929688 129.1875 " fill-opacity="1" fill-rule="nonzero"/><g clip-path="url(#id3)"><path fill="rgb(20.779419%, 24.708557%, 28.62854%)" d="M 13.902344 129.355469 L 2.953125 126.027344 L 13.902344 122.679688 Z M 13.902344 129.355469 " fill-opacity="1" fill-rule="nonzero"/></g><g clip-path="url(#id4)"><path fill="rgb(13.729858%, 18.03894%, 21.958923%)" d="M 13.902344 129.355469 L 2.953125 126.027344 L 13.902344 127.261719 Z M 13.902344 129.355469 " fill-opacity="1" fill-rule="nonzero"/></g><path fill="rgb(94.898987%, 94.898987%, 94.898987%)" d="M 342.910156 117.507812 L 352.792969 117.507812 L 352.792969 134.542969 L 342.910156 134.542969 Z M 342.910156 117.507812 " fill-opacity="1" fill-rule="nonzero"/><path fill="rgb(79.998779%, 79.60968%, 79.219055%)" d="M 342.910156 129.1875 L 352.792969 129.1875 L 352.792969 134.542969 L 342.910156 134.542969 Z M 342.910156 129.1875 " fill-opacity="1" fill-rule="nonzero"/><path fill="rgb(96.469116%, 51.368713%, 37.649536%)" d="M 363.4375 134.542969 C 365.617188 134.542969 367.796875 133.710938 369.457031 132.046875 C 371.121094 130.386719 371.953125 128.203125 371.953125 126.023438 C 371.953125 123.847656 371.121094 121.664062 369.457031 120.003906 C 367.796875 118.339844 365.617188 117.507812 363.4375 117.507812 L 352.796875 117.507812 L 352.796875 134.542969 Z M 363.4375 134.542969 " fill-opacity="1" fill-rule="nonzero"/><path fill="rgb(92.939758%, 42.749023%, 27.839661%)" d="M 369.460938 120.003906 C 368.492188 119.035156 367.34375 118.386719 366.128906 117.980469 C 366.417969 118.851562 366.601562 119.757812 366.601562 120.667969 C 366.601562 122.847656 365.765625 125.027344 364.105469 126.691406 C 362.441406 128.351562 360.261719 129.183594 358.085938 129.183594 L 352.796875 129.183594 L 352.796875 134.539062 L 363.441406 134.539062 C 365.617188 134.539062 367.796875 133.707031 369.460938 132.046875 C 371.125 130.382812 371.953125 128.203125 371.953125 126.023438 C 371.953125 123.847656 371.121094 121.667969 369.460938 120.003906 Z M 369.460938 120.003906 " fill-opacity="1" fill-rule="nonzero"/><g clip-path="url(#id5)"><path fill="rgb(27.839661%, 30.979919%, 34.899902%)" d="M 371.953125 204.882812 L 371.953125 168.84375 L 2.953125 168.84375 L 2.953125 204.882812 Z M 24.972656 186.859375 C 24.972656 189.164062 23.105469 191.027344 20.808594 191.027344 C 18.503906 191.027344 16.636719 189.164062 16.636719 186.859375 C 16.636719 184.558594 18.503906 182.695312 20.808594 182.695312 C 23.105469 182.695312 24.972656 184.558594 24.972656 186.859375 Z M 24.972656 186.859375 " fill-opacity="1" fill-rule="nonzero"/></g><path fill="rgb(100%, 100%, 100%)" d="M 8.414062 199.609375 L 9.402344 199.609375 L 9.402344 204.878906 L 8.414062 204.878906 Z M 8.414062 199.609375 " fill-opacity="1" fill-rule="nonzero"/><path fill="rgb(100%, 100%, 100%)" d="M 20.316406 199.609375 L 21.300781 199.609375 L 21.300781 204.878906 L 20.316406 204.878906 Z M 20.316406 199.609375 " fill-opacity="1" fill-rule="nonzero"/><path fill="rgb(100%, 100%, 100%)" d="M 32.222656 199.609375 L 33.207031 199.609375 L 33.207031 204.878906 L 32.222656 204.878906 Z M 32.222656 199.609375 " fill-opacity="1" fill-rule="nonzero"/><path fill="rgb(100%, 100%, 100%)" d="M 44.128906 199.609375 L 45.117188 199.609375 L 45.117188 204.878906 L 44.128906 204.878906 Z M 44.128906 199.609375 " fill-opacity="1" fill-rule="nonzero"/><path fill="rgb(100%, 100%, 100%)" d="M 56.027344 199.609375 L 57.015625 199.609375 L 57.015625 204.878906 L 56.027344 204.878906 Z M 56.027344 199.609375 " fill-opacity="1" fill-rule="nonzero"/><path fill="rgb(100%, 100%, 100%)" d="M 67.925781 199.609375 L 68.914062 199.609375 L 68.914062 204.878906 L 67.925781 204.878906 Z M 67.925781 199.609375 " fill-opacity="1" fill-rule="nonzero"/><path fill="rgb(100%, 100%, 100%)" d="M 79.832031 199.609375 L 80.820312 199.609375 L 80.820312 204.878906 L 79.832031 204.878906 Z M 79.832031 199.609375 " fill-opacity="1" fill-rule="nonzero"/><path fill="rgb(100%, 100%, 100%)" d="M 91.746094 199.609375 L 92.730469 199.609375 L 92.730469 204.878906 L 91.746094 204.878906 Z M 91.746094 199.609375 " fill-opacity="1" fill-rule="nonzero"/><path fill="rgb(100%, 100%, 100%)" d="M 103.640625 199.609375 L 104.628906 199.609375 L 104.628906 204.878906 L 103.640625 204.878906 Z M 103.640625 199.609375 " fill-opacity="1" fill-rule="nonzero"/><path fill="rgb(100%, 100%, 100%)" d="M 115.546875 199.609375 L 116.535156 199.609375 L 116.535156 204.878906 L 115.546875 204.878906 Z M 115.546875 199.609375 " fill-opacity="1" fill-rule="nonzero"/><path fill="rgb(100%, 100%, 100%)" d="M 127.441406 199.609375 L 128.433594 199.609375 L 128.433594 204.878906 L 127.441406 204.878906 Z M 127.441406 199.609375 " fill-opacity="1" fill-rule="nonzero"/><path fill="rgb(100%, 100%, 100%)" d="M 139.34375 199.609375 L 140.332031 199.609375 L 140.332031 204.878906 L 139.34375 204.878906 Z M 139.34375 199.609375 " fill-opacity="1" fill-rule="nonzero"/><path fill="rgb(100%, 100%, 100%)" d="M 151.246094 199.609375 L 152.238281 199.609375 L 152.238281 204.878906 L 151.246094 204.878906 Z M 151.246094 199.609375 " fill-opacity="1" fill-rule="nonzero"/><path fill="rgb(100%, 100%, 100%)" d="M 163.152344 199.609375 L 164.148438 199.609375 L 164.148438 204.878906 L 163.152344 204.878906 Z M 163.152344 199.609375 " fill-opacity="1" fill-rule="nonzero"/><path fill="rgb(100%, 100%, 100%)" d="M 175.054688 199.609375 L 176.046875 199.609375 L 176.046875 204.878906 L 175.054688 204.878906 Z M 175.054688 199.609375 " fill-opacity="1" fill-rule="nonzero"/><path fill="rgb(100%, 100%, 100%)" d="M 186.957031 199.609375 L 187.953125 199.609375 L 187.953125 204.878906 L 186.957031 204.878906 Z M 186.957031 199.609375 " fill-opacity="1" fill-rule="nonzero"/><path fill="rgb(100%, 100%, 100%)" d="M 198.859375 199.609375 L 199.851562 199.609375 L 199.851562 204.878906 L 198.859375 204.878906 Z M 198.859375 199.609375 " fill-opacity="1" fill-rule="nonzero"/><path fill="rgb(100%, 100%, 100%)" d="M 210.761719 199.609375 L 211.753906 199.609375 L 211.753906 204.878906 L 210.761719 204.878906 Z M 210.761719 199.609375 " fill-opacity="1" fill-rule="nonzero"/><path fill="rgb(100%, 100%, 100%)" d="M 222.667969 199.609375 L 223.660156 199.609375 L 223.660156 204.878906 L 222.667969 204.878906 Z M 222.667969 199.609375 " fill-opacity="1" fill-rule="nonzero"/><path fill="rgb(100%, 100%, 100%)" d="M 234.570312 199.609375 L 235.558594 199.609375 L 235.558594 204.878906 L 234.570312 204.878906 Z M 234.570312 199.609375 " fill-opacity="1" fill-rule="nonzero"/><path fill="rgb(100%, 100%, 100%)" d="M 246.472656 199.609375 L 247.460938 199.609375 L 247.460938 204.878906 L 246.472656 204.878906 Z M 246.472656 199.609375 " fill-opacity="1" fill-rule="nonzero"/><path fill="rgb(100%, 100%, 100%)" d="M 258.371094 199.609375 L 259.355469 199.609375 L 259.355469 204.878906 L 258.371094 204.878906 Z M 258.371094 199.609375 " fill-opacity="1" fill-rule="nonzero"/><path fill="rgb(100%, 100%, 100%)" d="M 270.277344 199.609375 L 271.265625 199.609375 L 271.265625 204.878906 L 270.277344 204.878906 Z M 270.277344 199.609375 " fill-opacity="1" fill-rule="nonzero"/><path fill="rgb(100%, 100%, 100%)" d="M 282.1875 199.609375 L 283.175781 199.609375 L 283.175781 204.878906 L 282.1875 204.878906 Z M 282.1875 199.609375 " fill-opacity="1" fill-rule="nonzero"/><path fill="rgb(100%, 100%, 100%)" d="M 294.085938 199.609375 L 295.074219 199.609375 L 295.074219 204.878906 L 294.085938 204.878906 Z M 294.085938 199.609375 " fill-opacity="1" fill-rule="nonzero"/><path fill="rgb(100%, 100%, 100%)" d="M 306 199.609375 L 306.984375 199.609375 L 306.984375 204.878906 L 306 204.878906 Z M 306 199.609375 " fill-opacity="1" fill-rule="nonzero"/><path fill="rgb(100%, 100%, 100%)" d="M 317.894531 199.609375 L 318.882812 199.609375 L 318.882812 204.878906 L 317.894531 204.878906 Z M 317.894531 199.609375 " fill-opacity="1" fill-rule="nonzero"/><path fill="rgb(100%, 100%, 100%)" d="M 329.800781 199.609375 L 330.785156 199.609375 L 330.785156 204.878906 L 329.800781 204.878906 Z M 329.800781 199.609375 " fill-opacity="1" fill-rule="nonzero"/><path fill="rgb(100%, 100%, 100%)" d="M 341.699219 199.609375 L 342.683594 199.609375 L 342.683594 204.878906 L 341.699219 204.878906 Z M 341.699219 199.609375 " fill-opacity="1" fill-rule="nonzero"/><path fill="rgb(100%, 100%, 100%)" d="M 353.601562 199.609375 L 354.589844 199.609375 L 354.589844 204.878906 L 353.601562 204.878906 Z M 353.601562 199.609375 " fill-opacity="1" fill-rule="nonzero"/><path fill="rgb(100%, 100%, 100%)" d="M 365.503906 199.609375 L 366.492188 199.609375 L 366.492188 204.878906 L 365.503906 204.878906 Z M 365.503906 199.609375 " fill-opacity="1" fill-rule="nonzero"/><path fill="rgb(100%, 100%, 100%)" d="M 14.527344 202.25 L 15.183594 202.25 L 15.183594 204.882812 L 14.527344 204.882812 Z M 14.527344 202.25 " fill-opacity="1" fill-rule="nonzero"/><path fill="rgb(100%, 100%, 100%)" d="M 26.4375 202.25 L 27.09375 202.25 L 27.09375 204.882812 L 26.4375 204.882812 Z M 26.4375 202.25 " fill-opacity="1" fill-rule="nonzero"/><path fill="rgb(100%, 100%, 100%)" d="M 38.339844 202.25 L 39 202.25 L 39 204.882812 L 38.339844 204.882812 Z M 38.339844 202.25 " fill-opacity="1" fill-rule="nonzero"/><path fill="rgb(100%, 100%, 100%)" d="M 50.246094 202.25 L 50.902344 202.25 L 50.902344 204.882812 L 50.246094 204.882812 Z M 50.246094 202.25 " fill-opacity="1" fill-rule="nonzero"/><path fill="rgb(100%, 100%, 100%)" d="M 62.148438 202.25 L 62.804688 202.25 L 62.804688 204.882812 L 62.148438 204.882812 Z M 62.148438 202.25 " fill-opacity="1" fill-rule="nonzero"/><path fill="rgb(100%, 100%, 100%)" d="M 74.046875 202.25 L 74.707031 202.25 L 74.707031 204.882812 L 74.046875 204.882812 Z M 74.046875 202.25 " fill-opacity="1" fill-rule="nonzero"/><path fill="rgb(100%, 100%, 100%)" d="M 85.953125 202.25 L 86.613281 202.25 L 86.613281 204.882812 L 85.953125 204.882812 Z M 85.953125 202.25 " fill-opacity="1" fill-rule="nonzero"/><path fill="rgb(100%, 100%, 100%)" d="M 97.855469 202.25 L 98.507812 202.25 L 98.507812 204.882812 L 97.855469 204.882812 Z M 97.855469 202.25 " fill-opacity="1" fill-rule="nonzero"/><path fill="rgb(100%, 100%, 100%)" d="M 109.753906 202.25 L 110.414062 202.25 L 110.414062 204.882812 L 109.753906 204.882812 Z M 109.753906 202.25 " fill-opacity="1" fill-rule="nonzero"/><path fill="rgb(100%, 100%, 100%)" d="M 121.667969 202.25 L 122.324219 202.25 L 122.324219 204.882812 L 121.667969 204.882812 Z M 121.667969 202.25 " fill-opacity="1" fill-rule="nonzero"/><path fill="rgb(100%, 100%, 100%)" d="M 133.558594 202.25 L 134.21875 202.25 L 134.21875 204.882812 L 133.558594 204.882812 Z M 133.558594 202.25 " fill-opacity="1" fill-rule="nonzero"/><path fill="rgb(100%, 100%, 100%)" d="M 145.460938 202.25 L 146.128906 202.25 L 146.128906 204.882812 L 145.460938 204.882812 Z M 145.460938 202.25 " fill-opacity="1" fill-rule="nonzero"/><path fill="rgb(100%, 100%, 100%)" d="M 157.371094 202.25 L 158.027344 202.25 L 158.027344 204.882812 L 157.371094 204.882812 Z M 157.371094 202.25 " fill-opacity="1" fill-rule="nonzero"/><path fill="rgb(100%, 100%, 100%)" d="M 169.265625 202.25 L 169.929688 202.25 L 169.929688 204.882812 L 169.265625 204.882812 Z M 169.265625 202.25 " fill-opacity="1" fill-rule="nonzero"/><path fill="rgb(100%, 100%, 100%)" d="M 181.171875 202.25 L 181.835938 202.25 L 181.835938 204.882812 L 181.171875 204.882812 Z M 181.171875 202.25 " fill-opacity="1" fill-rule="nonzero"/><path fill="rgb(100%, 100%, 100%)" d="M 193.070312 202.25 L 193.734375 202.25 L 193.734375 204.882812 L 193.070312 204.882812 Z M 193.070312 202.25 " fill-opacity="1" fill-rule="nonzero"/><path fill="rgb(100%, 100%, 100%)" d="M 204.980469 202.25 L 205.640625 202.25 L 205.640625 204.882812 L 204.980469 204.882812 Z M 204.980469 202.25 " fill-opacity="1" fill-rule="nonzero"/><path fill="rgb(100%, 100%, 100%)" d="M 216.878906 202.25 L 217.535156 202.25 L 217.535156 204.882812 L 216.878906 204.882812 Z M 216.878906 202.25 " fill-opacity="1" fill-rule="nonzero"/><path fill="rgb(100%, 100%, 100%)" d="M 228.78125 202.25 L 229.441406 202.25 L 229.441406 204.882812 L 228.78125 204.882812 Z M 228.78125 202.25 " fill-opacity="1" fill-rule="nonzero"/><path fill="rgb(100%, 100%, 100%)" d="M 240.6875 202.25 L 241.34375 202.25 L 241.34375 204.882812 L 240.6875 204.882812 Z M 240.6875 202.25 " fill-opacity="1" fill-rule="nonzero"/><path fill="rgb(100%, 100%, 100%)" d="M 252.585938 202.25 L 253.246094 202.25 L 253.246094 204.882812 L 252.585938 204.882812 Z M 252.585938 202.25 " fill-opacity="1" fill-rule="nonzero"/><path fill="rgb(100%, 100%, 100%)" d="M 264.5 202.25 L 265.160156 202.25 L 265.160156 204.882812 L 264.5 204.882812 Z M 264.5 202.25 " fill-opacity="1" fill-rule="nonzero"/><path fill="rgb(100%, 100%, 100%)" d="M 276.398438 202.25 L 277.054688 202.25 L 277.054688 204.882812 L 276.398438 204.882812 Z M 276.398438 202.25 " fill-opacity="1" fill-rule="nonzero"/><path fill="rgb(100%, 100%, 100%)" d="M 288.300781 202.25 L 288.957031 202.25 L 288.957031 204.882812 L 288.300781 204.882812 Z M 288.300781 202.25 " fill-opacity="1" fill-rule="nonzero"/><path fill="rgb(100%, 100%, 100%)" d="M 300.203125 202.25 L 300.863281 202.25 L 300.863281 204.882812 L 300.203125 204.882812 Z M 300.203125 202.25 " fill-opacity="1" fill-rule="nonzero"/><path fill="rgb(100%, 100%, 100%)" d="M 312.097656 202.25 L 312.753906 202.25 L 312.753906 204.882812 L 312.097656 204.882812 Z M 312.097656 202.25 " fill-opacity="1" fill-rule="nonzero"/><path fill="rgb(100%, 100%, 100%)" d="M 324.011719 202.25 L 324.667969 202.25 L 324.667969 204.882812 L 324.011719 204.882812 Z M 324.011719 202.25 " fill-opacity="1" fill-rule="nonzero"/><path fill="rgb(100%, 100%, 100%)" d="M 335.914062 202.25 L 336.574219 202.25 L 336.574219 204.882812 L 335.914062 204.882812 Z M 335.914062 202.25 " fill-opacity="1" fill-rule="nonzero"/><path fill="rgb(100%, 100%, 100%)" d="M 347.816406 202.25 L 348.476562 202.25 L 348.476562 204.882812 L 347.816406 204.882812 Z M 347.816406 202.25 " fill-opacity="1" fill-rule="nonzero"/><path fill="rgb(100%, 100%, 100%)" d="M 359.71875 202.25 L 360.375 202.25 L 360.375 204.882812 L 359.71875 204.882812 Z M 359.71875 202.25 " fill-opacity="1" fill-rule="nonzero"/><path fill="rgb(10.978699%, 14.509583%, 17.248535%)" d="M 290.222656 69.335938 L 288.675781 83.203125 L 86.226562 83.203125 L 84.683594 69.335938 Z M 290.222656 69.335938 " fill-opacity="1" fill-rule="nonzero"/><path fill="rgb(79.998779%, 66.668701%, 39.608765%)" d="M 284.867188 117.507812 L 283.566406 129.183594 L 91.335938 129.183594 L 90.035156 117.507812 Z M 284.867188 117.507812 " fill-opacity="1" fill-rule="nonzero"/><path fill="rgb(79.998779%, 57.649231%, 27.839661%)" d="M 283.566406 129.183594 L 282.976562 134.539062 L 91.929688 134.539062 L 91.335938 129.183594 Z M 283.566406 129.183594 " fill-opacity="1" fill-rule="nonzero"/><path fill="rgb(79.998779%, 79.60968%, 79.219055%)" d="M 282.976562 134.539062 L 279.164062 168.84375 L 95.738281 168.84375 L 91.929688 134.539062 Z M 282.976562 134.539062 " fill-opacity="1" fill-rule="nonzero"/><path fill="rgb(22.349548%, 24.708557%, 27.839661%)" d="M 279.164062 168.84375 L 275.167969 204.882812 L 99.738281 204.882812 L 95.738281 168.84375 Z M 279.164062 168.84375 " fill-opacity="1" fill-rule="nonzero"/><path fill="rgb(79.998779%, 79.60968%, 79.219055%)" d="M 275.167969 204.882812 L 271.355469 239.1875 L 103.546875 239.1875 L 99.738281 204.882812 Z M 275.167969 204.882812 " fill-opacity="1" fill-rule="nonzero"/><path fill="rgb(79.998779%, 79.60968%, 79.219055%)" d="M 288.675781 83.203125 L 284.867188 117.507812 L 90.035156 117.507812 L 86.226562 83.203125 Z M 288.675781 83.203125 " fill-opacity="1" fill-rule="nonzero"/><path fill="rgb(90.19928%, 89.7995%, 89.7995%)" d="M 103.550781 16.785156 L 271.355469 16.785156 L 271.355469 239.1875 L 103.550781 239.1875 Z M 103.550781 16.785156 " fill-opacity="1" fill-rule="nonzero"/><path fill="rgb(100%, 100%, 100%)" d="M 111.824219 27.277344 L 263.085938 27.277344 L 263.085938 239.183594 L 111.824219 239.183594 Z M 111.824219 27.277344 " fill-opacity="1" fill-rule="nonzero"/><path fill="rgb(56.858826%, 82.749939%, 85.099792%)" d="M 103.550781 0 L 271.355469 0 L 271.355469 8.394531 L 103.550781 8.394531 Z M 103.550781 0 " fill-opacity="1" fill-rule="nonzero"/><path fill="rgb(90.19928%, 89.7995%, 89.7995%)" d="M 103.550781 8.394531 L 271.355469 8.394531 L 271.355469 16.785156 L 103.550781 16.785156 Z M 103.550781 8.394531 " fill-opacity="1" fill-rule="nonzero"/><path fill="rgb(100%, 100%, 100%)" d="M 118.09375 10.910156 L 256.816406 10.910156 L 256.816406 14.265625 L 118.09375 14.265625 Z M 118.09375 10.910156 " fill-opacity="1" fill-rule="nonzero"/><path fill="rgb(96.469116%, 51.368713%, 37.649536%)" d="M 103.550781 4.195312 L 118.09375 4.195312 L 118.09375 8.390625 L 103.550781 8.390625 Z M 103.550781 4.195312 " fill-opacity="1" fill-rule="nonzero"/><path fill="rgb(90.19928%, 89.7995%, 89.7995%)" d="M 118.09375 4.195312 L 152.777344 4.195312 L 152.777344 8.390625 L 118.09375 8.390625 Z M 118.09375 4.195312 " fill-opacity="1" fill-rule="nonzero"/><path fill="rgb(79.998779%, 79.60968%, 79.219055%)" d="M 152.773438 4.195312 L 187.453125 4.195312 L 187.453125 8.390625 L 152.773438 8.390625 Z M 152.773438 4.195312 " fill-opacity="1" fill-rule="nonzero"/><path fill="rgb(79.998779%, 79.60968%, 79.219055%)" d="M 111.824219 10.910156 L 115.179688 10.910156 L 115.179688 14.265625 L 111.824219 14.265625 Z M 111.824219 10.910156 " fill-opacity="1" fill-rule="nonzero"/><path fill="rgb(79.998779%, 79.60968%, 79.219055%)" d="M 106.464844 10.910156 L 109.820312 10.910156 L 109.820312 14.265625 L 106.464844 14.265625 Z M 106.464844 10.910156 " fill-opacity="1" fill-rule="nonzero"/><path fill="rgb(79.998779%, 79.60968%, 79.219055%)" d="M 265.089844 10.910156 L 268.441406 10.910156 L 268.441406 14.265625 L 265.089844 14.265625 Z M 265.089844 10.910156 " fill-opacity="1" fill-rule="nonzero"/><path fill="rgb(79.998779%, 79.60968%, 79.219055%)" d="M 259.722656 10.910156 L 263.082031 10.910156 L 263.082031 14.265625 L 259.722656 14.265625 Z M 259.722656 10.910156 " fill-opacity="1" fill-rule="nonzero"/><path fill="rgb(100%, 78.42865%, 42.749023%)" d="M 111.824219 78.046875 L 263.082031 78.046875 L 263.082031 136.09375 L 111.824219 136.09375 Z M 111.824219 78.046875 " fill-opacity="1" fill-rule="nonzero"/><path fill="rgb(100%, 100%, 100%)" d="M 119.28125 107.074219 L 123.207031 111 L 123.207031 103.144531 Z M 119.28125 107.074219 " fill-opacity="1" fill-rule="nonzero"/><path fill="rgb(100%, 100%, 100%)" d="M 255.621094 107.074219 L 251.695312 111 L 251.695312 103.144531 Z M 255.621094 107.074219 " fill-opacity="1" fill-rule="nonzero"/><path fill="rgb(27.839661%, 30.979919%, 34.899902%)" d="M 173.722656 89.53125 L 213.671875 89.53125 L 213.671875 93.414062 L 173.722656 93.414062 Z M 173.722656 89.53125 " fill-opacity="1" fill-rule="nonzero"/><path fill="rgb(100%, 100%, 100%)" d="M 173.722656 96.183594 L 240.523438 96.183594 L 240.523438 97.261719 L 173.722656 97.261719 Z M 173.722656 96.183594 " fill-opacity="1" fill-rule="nonzero"/><path fill="rgb(100%, 100%, 100%)" d="M 173.722656 100.144531 L 240.523438 100.144531 L 240.523438 101.21875 L 173.722656 101.21875 Z M 173.722656 100.144531 " fill-opacity="1" fill-rule="nonzero"/><path fill="rgb(100%, 100%, 100%)" d="M 173.796875 104.101562 L 240.523438 104.101562 L 240.523438 105.175781 L 173.796875 105.175781 Z M 173.796875 104.101562 " fill-opacity="1" fill-rule="nonzero"/><path fill="rgb(100%, 100%, 100%)" d="M 173.796875 108.058594 L 229.042969 108.058594 L 229.042969 109.136719 L 173.796875 109.136719 Z M 173.796875 108.058594 " fill-opacity="1" fill-rule="nonzero"/><path fill="rgb(100%, 100%, 100%)" d="M 134.21875 89.53125 L 169.285156 89.53125 L 169.285156 124.609375 L 134.21875 124.609375 Z M 134.21875 89.53125 " fill-opacity="1" fill-rule="nonzero"/><path fill="rgb(79.998779%, 79.60968%, 79.219055%)" d="M 168.105469 200.496094 L 206.796875 200.496094 L 206.796875 224.683594 L 168.105469 224.683594 Z M 168.105469 200.496094 " fill-opacity="1" fill-rule="nonzero"/><path fill="rgb(27.839661%, 30.979919%, 34.899902%)" d="M 168.105469 224.683594 L 206.796875 224.683594 L 206.796875 229.117188 L 168.105469 229.117188 Z M 168.105469 224.683594 " fill-opacity="1" fill-rule="nonzero"/><path fill="rgb(100%, 100%, 100%)" d="M 184.828125 209.5625 L 190.074219 212.589844 L 184.828125 215.617188 Z M 184.828125 209.5625 " fill-opacity="1" fill-rule="nonzero"/><path fill="rgb(79.998779%, 79.60968%, 79.219055%)" d="M 216.933594 200.496094 L 236.277344 200.496094 L 236.277344 202.996094 L 216.933594 202.996094 Z M 216.933594 200.496094 " fill-opacity="1" fill-rule="nonzero"/><path fill="rgb(79.998779%, 79.60968%, 79.219055%)" d="M 216.933594 205.214844 L 255.621094 205.214844 L 255.621094 206.289062 L 216.933594 206.289062 Z M 216.933594 205.214844 " fill-opacity="1" fill-rule="nonzero"/><path fill="rgb(79.998779%, 79.60968%, 79.219055%)" d="M 216.933594 208.511719 L 255.621094 208.511719 L 255.621094 209.585938 L 216.933594 209.585938 Z M 216.933594 208.511719 " fill-opacity="1" fill-rule="nonzero"/><path fill="rgb(79.998779%, 79.60968%, 79.219055%)" d="M 216.933594 211.804688 L 255.621094 211.804688 L 255.621094 212.882812 L 216.933594 212.882812 Z M 216.933594 211.804688 " fill-opacity="1" fill-rule="nonzero"/><path fill="rgb(79.998779%, 79.60968%, 79.219055%)" d="M 216.933594 215.105469 L 255.621094 215.105469 L 255.621094 216.179688 L 216.933594 216.179688 Z M 216.933594 215.105469 " fill-opacity="1" fill-rule="nonzero"/><path fill="rgb(79.998779%, 79.60968%, 79.219055%)" d="M 226.601562 218.398438 L 245.949219 218.398438 L 245.949219 219.476562 L 226.601562 219.476562 Z M 226.601562 218.398438 " fill-opacity="1" fill-rule="nonzero"/><path fill="rgb(27.839661%, 30.979919%, 34.899902%)" d="M 216.933594 224.683594 L 246.019531 224.683594 L 246.019531 229.117188 L 216.933594 229.117188 Z M 216.933594 224.683594 " fill-opacity="1" fill-rule="nonzero"/><path fill="rgb(100%, 78.42865%, 42.749023%)" d="M 246.015625 224.683594 L 255.621094 224.683594 L 255.621094 229.117188 L 246.015625 229.117188 Z M 246.015625 224.683594 " fill-opacity="1" fill-rule="nonzero"/><path fill="rgb(79.998779%, 79.60968%, 79.219055%)" d="M 119.28125 218.15625 L 157.96875 218.15625 L 157.96875 219.230469 L 119.28125 219.230469 Z M 119.28125 218.15625 " fill-opacity="1" fill-rule="nonzero"/><path fill="rgb(79.998779%, 79.60968%, 79.219055%)" d="M 119.28125 221.453125 L 157.96875 221.453125 L 157.96875 222.527344 L 119.28125 222.527344 Z M 119.28125 221.453125 " fill-opacity="1" fill-rule="nonzero"/><path fill="rgb(79.998779%, 79.60968%, 79.219055%)" d="M 119.28125 224.746094 L 157.96875 224.746094 L 157.96875 225.824219 L 119.28125 225.824219 Z M 119.28125 224.746094 " fill-opacity="1" fill-rule="nonzero"/><path fill="rgb(79.998779%, 79.60968%, 79.219055%)" d="M 119.28125 228.042969 L 143.859375 228.042969 L 143.859375 229.121094 L 119.28125 229.121094 Z M 119.28125 228.042969 " fill-opacity="1" fill-rule="nonzero"/><path fill="rgb(79.998779%, 79.60968%, 79.219055%)" d="M 138.402344 200.496094 L 157.96875 200.496094 L 157.96875 202.996094 L 138.402344 202.996094 Z M 138.402344 200.496094 " fill-opacity="1" fill-rule="nonzero"/><path fill="rgb(79.998779%, 79.60968%, 79.219055%)" d="M 138.402344 205.214844 L 157.96875 205.214844 L 157.96875 206.289062 L 138.402344 206.289062 Z M 138.402344 205.214844 " fill-opacity="1" fill-rule="nonzero"/><path fill="rgb(79.998779%, 79.60968%, 79.219055%)" d="M 138.402344 208.511719 L 150.257812 208.511719 L 150.257812 209.589844 L 138.402344 209.589844 Z M 138.402344 208.511719 " fill-opacity="1" fill-rule="nonzero"/><path fill="rgb(96.469116%, 51.368713%, 37.649536%)" d="M 119.28125 200.496094 L 134.554688 200.496094 L 134.554688 214.964844 L 119.28125 214.964844 Z M 119.28125 200.496094 " fill-opacity="1" fill-rule="nonzero"/><path fill="rgb(96.469116%, 51.368713%, 37.649536%)" d="M 146.296875 53.613281 L 155.785156 53.613281 L 155.785156 63.101562 L 146.296875 63.101562 Z M 146.296875 53.613281 " fill-opacity="1" fill-rule="nonzero"/><path fill="rgb(27.839661%, 30.979919%, 34.899902%)" d="M 143.265625 65.96875 L 158.816406 65.96875 L 158.816406 66.515625 L 143.265625 66.515625 Z M 143.265625 65.96875 " fill-opacity="1" fill-rule="nonzero"/><path fill="rgb(27.839661%, 30.979919%, 34.899902%)" d="M 143.265625 67.773438 L 158.816406 67.773438 L 158.816406 68.320312 L 143.265625 68.320312 Z M 143.265625 67.773438 " fill-opacity="1" fill-rule="nonzero"/><path fill="rgb(27.839661%, 30.979919%, 34.899902%)" d="M 147.050781 69.578125 L 155.03125 69.578125 L 155.03125 70.125 L 147.050781 70.125 Z M 147.050781 69.578125 " fill-opacity="1" fill-rule="nonzero"/><path fill="rgb(96.469116%, 51.368713%, 37.649536%)" d="M 170.574219 53.613281 L 180.058594 53.613281 L 180.058594 63.101562 L 170.574219 63.101562 Z M 170.574219 53.613281 " fill-opacity="1" fill-rule="nonzero"/><path fill="rgb(27.839661%, 30.979919%, 34.899902%)" d="M 167.542969 65.96875 L 183.085938 65.96875 L 183.085938 66.515625 L 167.542969 66.515625 Z M 167.542969 65.96875 " fill-opacity="1" fill-rule="nonzero"/><path fill="rgb(27.839661%, 30.979919%, 34.899902%)" d="M 167.542969 67.773438 L 183.085938 67.773438 L 183.085938 68.320312 L 167.542969 68.320312 Z M 167.542969 67.773438 " fill-opacity="1" fill-rule="nonzero"/><path fill="rgb(27.839661%, 30.979919%, 34.899902%)" d="M 171.328125 69.578125 L 179.304688 69.578125 L 179.304688 70.125 L 171.328125 70.125 Z M 171.328125 69.578125 " fill-opacity="1" fill-rule="nonzero"/><path fill="rgb(96.469116%, 51.368713%, 37.649536%)" d="M 194.851562 53.613281 L 204.332031 53.613281 L 204.332031 63.101562 L 194.851562 63.101562 Z M 194.851562 53.613281 " fill-opacity="1" fill-rule="nonzero"/><path fill="rgb(27.839661%, 30.979919%, 34.899902%)" d="M 191.816406 65.96875 L 207.363281 65.96875 L 207.363281 66.515625 L 191.816406 66.515625 Z M 191.816406 65.96875 " fill-opacity="1" fill-rule="nonzero"/><path fill="rgb(27.839661%, 30.979919%, 34.899902%)" d="M 191.816406 67.773438 L 207.363281 67.773438 L 207.363281 68.320312 L 191.816406 68.320312 Z M 191.816406 67.773438 " fill-opacity="1" fill-rule="nonzero"/><path fill="rgb(27.839661%, 30.979919%, 34.899902%)" d="M 195.601562 69.578125 L 203.578125 69.578125 L 203.578125 70.125 L 195.601562 70.125 Z M 195.601562 69.578125 " fill-opacity="1" fill-rule="nonzero"/><path fill="rgb(96.469116%, 51.368713%, 37.649536%)" d="M 219.125 53.613281 L 228.605469 53.613281 L 228.605469 63.101562 L 219.125 63.101562 Z M 219.125 53.613281 " fill-opacity="1" fill-rule="nonzero"/><path fill="rgb(27.839661%, 30.979919%, 34.899902%)" d="M 216.089844 65.96875 L 231.636719 65.96875 L 231.636719 66.515625 L 216.089844 66.515625 Z M 216.089844 65.96875 " fill-opacity="1" fill-rule="nonzero"/><path fill="rgb(27.839661%, 30.979919%, 34.899902%)" d="M 216.089844 67.773438 L 231.636719 67.773438 L 231.636719 68.320312 L 216.089844 68.320312 Z M 216.089844 67.773438 " fill-opacity="1" fill-rule="nonzero"/><path fill="rgb(27.839661%, 30.979919%, 34.899902%)" d="M 219.875 69.578125 L 227.851562 69.578125 L 227.851562 70.125 L 219.875 70.125 Z M 219.875 69.578125 " fill-opacity="1" fill-rule="nonzero"/><path fill="rgb(27.839661%, 30.979919%, 34.899902%)" d="M 119.28125 175.917969 L 157.96875 175.917969 L 157.96875 179.125 L 119.28125 179.125 Z M 119.28125 175.917969 " fill-opacity="1" fill-rule="nonzero"/><path fill="rgb(79.998779%, 79.60968%, 79.219055%)" d="M 119.28125 182.300781 L 157.96875 182.300781 L 157.96875 183.375 L 119.28125 183.375 Z M 119.28125 182.300781 " fill-opacity="1" fill-rule="nonzero"/><path fill="rgb(79.998779%, 79.60968%, 79.219055%)" d="M 119.28125 185.832031 L 157.96875 185.832031 L 157.96875 186.90625 L 119.28125 186.90625 Z M 119.28125 185.832031 " fill-opacity="1" fill-rule="nonzero"/><path fill="rgb(79.998779%, 79.60968%, 79.219055%)" d="M 129.976562 189.363281 L 147.273438 189.363281 L 147.273438 190.4375 L 129.976562 190.4375 Z M 129.976562 189.363281 " fill-opacity="1" fill-rule="nonzero"/><path fill="rgb(100%, 78.42865%, 42.749023%)" d="M 119.28125 146.160156 L 157.96875 146.160156 L 157.96875 169.773438 L 119.28125 169.773438 Z M 119.28125 146.160156 " fill-opacity="1" fill-rule="nonzero"/><path fill="rgb(27.839661%, 30.979919%, 34.899902%)" d="M 168.105469 175.917969 L 206.796875 175.917969 L 206.796875 179.125 L 168.105469 179.125 Z M 168.105469 175.917969 " fill-opacity="1" fill-rule="nonzero"/><path fill="rgb(79.998779%, 79.60968%, 79.219055%)" d="M 168.105469 182.300781 L 206.796875 182.300781 L 206.796875 183.375 L 168.105469 183.375 Z M 168.105469 182.300781 " fill-opacity="1" fill-rule="nonzero"/><path fill="rgb(79.998779%, 79.60968%, 79.219055%)" d="M 168.105469 185.832031 L 206.796875 185.832031 L 206.796875 186.90625 L 168.105469 186.90625 Z M 168.105469 185.832031 " fill-opacity="1" fill-rule="nonzero"/><path fill="rgb(79.998779%, 79.60968%, 79.219055%)" d="M 178.804688 189.363281 L 196.101562 189.363281 L 196.101562 190.4375 L 178.804688 190.4375 Z M 178.804688 189.363281 " fill-opacity="1" fill-rule="nonzero"/><path fill="rgb(100%, 78.42865%, 42.749023%)" d="M 168.105469 146.160156 L 206.796875 146.160156 L 206.796875 169.773438 L 168.105469 169.773438 Z M 168.105469 146.160156 " fill-opacity="1" fill-rule="nonzero"/><path fill="rgb(27.839661%, 30.979919%, 34.899902%)" d="M 216.933594 175.917969 L 255.621094 175.917969 L 255.621094 179.125 L 216.933594 179.125 Z M 216.933594 175.917969 " fill-opacity="1" fill-rule="nonzero"/><path fill="rgb(79.998779%, 79.60968%, 79.219055%)" d="M 216.933594 182.300781 L 255.621094 182.300781 L 255.621094 183.375 L 216.933594 183.375 Z M 216.933594 182.300781 " fill-opacity="1" fill-rule="nonzero"/><path fill="rgb(79.998779%, 79.60968%, 79.219055%)" d="M 216.933594 185.832031 L 255.621094 185.832031 L 255.621094 186.90625 L 216.933594 186.90625 Z M 216.933594 185.832031 " fill-opacity="1" fill-rule="nonzero"/><path fill="rgb(79.998779%, 79.60968%, 79.219055%)" d="M 227.628906 189.363281 L 244.925781 189.363281 L 244.925781 190.4375 L 227.628906 190.4375 Z M 227.628906 189.363281 " fill-opacity="1" fill-rule="nonzero"/><path fill="rgb(96.469116%, 51.368713%, 37.649536%)" d="M 216.933594 146.160156 L 255.621094 146.160156 L 255.621094 169.773438 L 216.933594 169.773438 Z M 216.933594 146.160156 " fill-opacity="1" fill-rule="nonzero"/><path fill="rgb(100%, 78.42865%, 42.749023%)" d="M 119.28125 35.199219 L 239.171875 35.199219 L 239.171875 45.691406 L 119.28125 45.691406 Z M 119.28125 35.199219 " fill-opacity="1" fill-rule="nonzero"/><path fill="rgb(100%, 100%, 100%)" d="M 197.914062 37.996094 L 236.371094 37.996094 L 236.371094 42.890625 L 197.914062 42.890625 Z M 197.914062 37.996094 " fill-opacity="1" fill-rule="nonzero"/><path fill="rgb(27.839661%, 30.979919%, 34.899902%)" d="M 239.167969 35.199219 L 255.621094 35.199219 L 255.621094 45.691406 L 239.167969 45.691406 Z M 239.167969 35.199219 " fill-opacity="1" fill-rule="nonzero"/><path fill="rgb(100%, 100%, 100%)" d="M 122.65625 39.804688 L 133.324219 39.804688 L 133.324219 41.082031 L 122.65625 41.082031 Z M 122.65625 39.804688 " fill-opacity="1" fill-rule="nonzero"/><path fill="rgb(100%, 100%, 100%)" d="M 136.703125 39.804688 L 147.375 39.804688 L 147.375 41.082031 L 136.703125 41.082031 Z M 136.703125 39.804688 " fill-opacity="1" fill-rule="nonzero"/><path fill="rgb(100%, 100%, 100%)" d="M 150.753906 39.804688 L 161.425781 39.804688 L 161.425781 41.082031 L 150.753906 41.082031 Z M 150.753906 39.804688 " fill-opacity="1" fill-rule="nonzero"/><path fill="rgb(100%, 100%, 100%)" d="M 164.808594 39.804688 L 175.476562 39.804688 L 175.476562 41.082031 L 164.808594 41.082031 Z M 164.808594 39.804688 " fill-opacity="1" fill-rule="nonzero"/><path fill="rgb(96.469116%, 51.368713%, 37.649536%)" d="M 103.550781 16.785156 L 271.355469 16.785156 L 271.355469 27.277344 L 103.550781 27.277344 Z M 103.550781 16.785156 " fill-opacity="1" fill-rule="nonzero"/><path fill="rgb(100%, 100%, 100%)" d="M 111.824219 21.28125 L 147.9375 21.28125 L 147.9375 22.78125 L 111.824219 22.78125 Z M 111.824219 21.28125 " fill-opacity="1" fill-rule="nonzero"/><path fill="rgb(100%, 100%, 100%)" d="M 164.359375 21.28125 L 174.324219 21.28125 L 174.324219 22.78125 L 164.359375 22.78125 Z M 164.359375 21.28125 " fill-opacity="1" fill-rule="nonzero"/><path fill="rgb(100%, 100%, 100%)" d="M 177.484375 21.28125 L 187.453125 21.28125 L 187.453125 22.78125 L 177.484375 22.78125 Z M 177.484375 21.28125 " fill-opacity="1" fill-rule="nonzero"/><path fill="rgb(100%, 100%, 100%)" d="M 216.234375 20.28125 L 232.6875 20.28125 L 232.6875 23.777344 L 216.234375 23.777344 Z M 216.234375 20.28125 " fill-opacity="1" fill-rule="nonzero"/><path fill="rgb(100%, 100%, 100%)" d="M 235.195312 20.28125 L 251.648438 20.28125 L 251.648438 23.777344 L 235.195312 23.777344 Z M 235.195312 20.28125 " fill-opacity="1" fill-rule="nonzero"/><path fill="rgb(27.839661%, 30.979919%, 34.899902%)" d="M 254.152344 20.28125 L 263.082031 20.28125 L 263.082031 23.777344 L 254.152344 23.777344 Z M 254.152344 20.28125 " fill-opacity="1" fill-rule="nonzero"/></svg>