<svg xmlns="http://www.w3.org/2000/svg" xmlns:xlink="http://www.w3.org/1999/xlink" width="500" zoomAndPan="magnify" viewBox="0 0 375 374.999991" height="500" preserveAspectRatio="xMidYMid meet" version="1.0"><defs><clipPath id="id1"><path d="M 5.621094 11.21875 L 370.121094 11.21875 L 370.121094 364.464844 L 5.621094 364.464844 Z M 5.621094 11.21875 " clip-rule="nonzero"/></clipPath></defs><g clip-path="url(#id1)"><path fill="rgb(100%, 36.079407%, 0%)" d="M 134.921875 282.804688 C 139.390625 282.804688 143.007812 286.421875 143.007812 290.890625 C 143.007812 295.308594 139.390625 298.871094 134.921875 298.871094 C 130.507812 298.871094 126.886719 295.308594 126.886719 290.890625 C 126.886719 286.421875 130.507812 282.804688 134.921875 282.804688 Z M 134.921875 270.304688 C 123.644531 270.304688 114.386719 279.558594 114.386719 290.890625 C 114.386719 302.171875 123.644531 311.425781 134.921875 311.425781 C 146.199219 311.425781 155.511719 302.117188 155.511719 290.890625 C 155.511719 279.558594 146.199219 270.304688 134.921875 270.304688 Z M 286.277344 261.472656 C 296.597656 261.472656 305.003906 269.878906 305.003906 280.144531 C 305.003906 290.464844 296.597656 298.871094 286.277344 298.871094 C 276.007812 298.871094 267.550781 290.464844 267.550781 280.144531 C 267.550781 269.878906 276.007812 261.472656 286.277344 261.472656 Z M 286.277344 249.023438 C 269.148438 249.023438 255.101562 263.015625 255.101562 280.144531 C 255.101562 297.328125 269.148438 311.425781 286.277344 311.425781 C 303.460938 311.425781 317.558594 297.277344 317.558594 280.144531 C 317.558594 263.066406 303.460938 249.023438 286.277344 249.023438 Z M 131.835938 245.617188 L 138.0625 245.617188 L 138.0625 249.820312 C 138.0625 252.746094 140.082031 255.246094 142.902344 255.886719 C 146.839844 256.789062 150.617188 258.386719 154.019531 260.515625 C 156.519531 262.058594 159.714844 261.683594 161.789062 259.609375 L 164.714844 256.683594 L 169.128906 261.101562 L 166.152344 264.027344 C 164.128906 266.101562 163.757812 269.292969 165.300781 271.738281 C 167.425781 275.144531 168.96875 278.921875 169.875 282.859375 C 170.511719 285.730469 173.011719 287.699219 175.9375 287.753906 L 180.195312 287.753906 L 180.195312 293.976562 L 175.992188 293.976562 C 173.066406 293.976562 170.511719 296 169.875 298.820312 C 168.96875 302.753906 167.425781 306.480469 165.300781 309.9375 C 163.757812 312.386719 164.128906 315.628906 166.152344 317.652344 L 169.128906 320.683594 L 164.714844 325.046875 L 161.789062 322.066406 C 159.714844 320.046875 156.519531 319.671875 154.074219 321.214844 C 150.617188 323.34375 146.890625 324.886719 142.953125 325.792969 C 140.082031 326.429688 138.0625 328.929688 138.0625 331.910156 L 138.0625 336.113281 L 131.835938 336.113281 L 131.835938 331.910156 C 131.835938 328.984375 129.816406 326.484375 126.996094 325.792969 C 123.003906 324.886719 119.28125 323.398438 115.875 321.214844 C 113.375 319.671875 110.183594 320.046875 108.109375 322.066406 L 105.128906 325.046875 L 100.714844 320.632812 L 103.691406 317.652344 C 105.769531 315.628906 106.085938 312.386719 104.597656 309.9375 C 102.417969 306.53125 100.875 302.753906 99.96875 298.820312 C 99.382812 296 96.832031 293.976562 93.902344 293.925781 L 89.703125 293.925781 L 89.703125 287.699219 L 93.902344 287.699219 C 96.832031 287.699219 99.332031 285.730469 99.96875 282.859375 C 100.875 278.921875 102.417969 275.144531 104.597656 271.738281 C 106.140625 269.292969 105.769531 266.101562 103.691406 264.027344 L 100.714844 261.046875 L 105.128906 256.632812 L 108.109375 259.609375 C 110.128906 261.632812 113.375 262.003906 115.824219 260.460938 C 119.226562 258.332031 123.003906 256.789062 126.941406 255.886719 C 129.761719 255.246094 131.835938 252.746094 131.835938 249.820312 Z M 125.558594 233.117188 C 122.101562 233.117188 119.335938 235.882812 119.335938 239.339844 L 119.335938 245.777344 C 117.523438 246.363281 115.769531 247.054688 114.066406 247.90625 L 109.546875 243.4375 C 107.097656 240.988281 103.160156 240.988281 100.714844 243.4375 L 87.46875 256.683594 C 85.074219 259.078125 85.074219 263.015625 87.46875 265.460938 L 91.988281 269.984375 C 91.191406 271.6875 90.445312 273.441406 89.808594 275.25 L 83.421875 275.25 C 80.019531 275.25 77.199219 278.070312 77.199219 281.527344 L 77.199219 300.253906 C 77.199219 303.660156 80.019531 306.480469 83.421875 306.480469 L 89.808594 306.480469 C 90.445312 308.234375 91.136719 309.992188 91.988281 311.746094 L 87.46875 316.269531 C 85.074219 318.664062 85.074219 322.597656 87.46875 325.101562 L 100.714844 338.347656 C 103.160156 340.742188 107.097656 340.742188 109.546875 338.347656 L 114.066406 333.773438 C 115.769531 334.621094 117.523438 335.367188 119.335938 336.007812 L 119.335938 342.335938 C 119.335938 345.792969 122.101562 348.613281 125.558594 348.613281 L 144.285156 348.613281 C 147.742188 348.613281 150.5625 345.792969 150.5625 342.335938 L 150.5625 336.007812 C 152.371094 335.367188 154.074219 334.621094 155.828125 333.773438 L 160.296875 338.347656 C 162.746094 340.742188 166.734375 340.742188 169.128906 338.347656 L 182.375 325.101562 C 184.824219 322.652344 184.824219 318.664062 182.429688 316.269531 C 182.375 316.269531 182.375 316.214844 182.375 316.214844 L 177.90625 311.746094 C 178.757812 309.992188 179.449219 308.234375 180.089844 306.480469 L 186.417969 306.480469 C 189.878906 306.480469 192.644531 303.660156 192.644531 300.253906 L 192.644531 281.527344 C 192.644531 278.070312 189.878906 275.25 186.417969 275.25 L 180.035156 275.25 C 179.449219 273.441406 178.707031 271.6875 177.90625 269.984375 L 182.375 265.460938 C 184.824219 263.015625 184.824219 259.078125 182.375 256.683594 L 169.128906 243.4375 C 166.734375 240.988281 162.746094 240.988281 160.296875 243.4375 L 155.828125 247.90625 C 154.074219 247.054688 152.371094 246.363281 150.5625 245.726562 L 150.5625 239.339844 C 150.5625 235.882812 147.742188 233.117188 144.285156 233.117188 Z M 278.933594 211.515625 L 293.726562 211.515625 L 293.726562 220.453125 C 293.726562 223.378906 295.695312 225.933594 298.566406 226.574219 C 304.578125 227.957031 310.324219 230.351562 315.589844 233.648438 C 318.039062 235.191406 321.230469 234.820312 323.304688 232.742188 L 329.636719 226.414062 L 340.0625 236.839844 L 333.785156 243.171875 C 331.710938 245.191406 331.335938 248.4375 332.878906 250.886719 C 336.179688 256.152344 338.519531 261.898438 339.851562 267.960938 C 340.542969 270.78125 343.042969 272.804688 345.96875 272.804688 L 355.011719 272.804688 L 355.011719 287.59375 L 345.96875 287.59375 C 343.09375 287.59375 340.542969 289.5625 339.902344 292.433594 C 338.519531 298.445312 336.179688 304.191406 332.878906 309.457031 C 331.285156 311.90625 331.65625 315.152344 333.730469 317.226562 L 340.0625 323.503906 L 329.636719 333.929688 L 323.359375 327.652344 C 321.28125 325.632812 318.089844 325.257812 315.644531 326.800781 C 310.375 330.046875 304.578125 332.441406 298.566406 333.773438 C 295.695312 334.410156 293.726562 336.964844 293.726562 339.835938 L 293.726562 348.828125 L 278.933594 348.828125 L 278.933594 339.890625 C 278.882812 336.964844 276.914062 334.464844 274.09375 333.773438 C 268.03125 332.441406 262.285156 330.046875 257.070312 326.75 C 254.570312 325.207031 251.378906 325.578125 249.355469 327.652344 L 242.972656 333.929688 L 232.542969 323.503906 L 238.875 317.226562 C 240.949219 315.152344 241.269531 311.960938 239.726562 309.511719 C 236.480469 304.246094 234.085938 298.5 232.757812 292.433594 C 232.066406 289.5625 229.566406 287.59375 226.640625 287.59375 L 217.648438 287.59375 L 217.648438 272.804688 L 226.585938 272.804688 C 229.511719 272.855469 232.066406 270.78125 232.703125 267.960938 C 234.085938 261.949219 236.480469 256.152344 239.78125 250.9375 C 241.324219 248.4375 240.949219 245.246094 238.875 243.222656 L 232.542969 236.839844 L 242.972656 226.414062 L 249.304688 232.742188 C 251.324219 234.765625 254.570312 235.136719 257.015625 233.59375 C 262.285156 230.351562 268.03125 227.957031 274.09375 226.574219 C 276.859375 225.933594 278.882812 223.433594 278.933594 220.507812 Z M 272.65625 199.066406 C 269.199219 199.066406 266.433594 201.835938 266.433594 205.238281 L 266.433594 216.410156 C 262.550781 217.636719 258.824219 219.125 255.261719 221.039062 L 247.386719 213.167969 C 244.992188 210.773438 241.003906 210.773438 238.554688 213.167969 L 219.296875 232.425781 C 216.902344 234.871094 216.902344 238.863281 219.296875 241.257812 L 227.171875 249.128906 C 225.308594 252.746094 223.765625 256.472656 222.488281 260.355469 L 211.371094 260.355469 C 207.964844 260.355469 205.199219 263.121094 205.199219 266.578125 L 205.199219 293.816406 C 205.199219 297.222656 207.964844 300.042969 211.371094 300.042969 L 222.542969 300.042969 C 223.765625 303.925781 225.257812 307.648438 227.171875 311.269531 L 219.296875 319.140625 C 216.902344 321.589844 216.902344 325.527344 219.296875 327.917969 L 238.554688 347.179688 C 241.003906 349.625 244.992188 349.625 247.386719 347.179688 L 255.261719 339.359375 C 258.878906 341.21875 262.550781 342.761719 266.433594 343.933594 L 266.433594 355.105469 C 266.433594 358.507812 269.199219 361.328125 272.65625 361.328125 L 299.949219 361.328125 C 303.355469 361.328125 306.175781 358.507812 306.175781 355.105469 L 306.175781 343.933594 C 310.058594 342.761719 313.78125 341.21875 317.398438 339.359375 L 325.21875 347.179688 C 327.667969 349.625 331.605469 349.625 334.050781 347.179688 L 353.308594 327.917969 C 355.757812 325.527344 355.757812 321.589844 353.308594 319.140625 L 345.4375 311.269531 C 347.351562 307.648438 348.894531 303.925781 350.0625 300.042969 L 361.183594 300.042969 C 364.640625 300.042969 367.460938 297.222656 367.460938 293.816406 L 367.460938 266.578125 C 367.460938 263.121094 364.640625 260.355469 361.183594 260.355469 L 350.0625 260.355469 C 348.894531 256.417969 347.351562 252.746094 345.488281 249.128906 L 353.308594 241.257812 C 355.757812 238.863281 355.757812 234.871094 353.308594 232.425781 L 334.050781 213.167969 C 331.605469 210.773438 327.667969 210.773438 325.21875 213.167969 L 317.347656 221.039062 C 313.78125 219.179688 310.058594 217.636719 306.175781 216.410156 L 306.175781 205.238281 C 306.175781 201.835938 303.355469 199.066406 299.949219 199.066406 Z M 223.925781 111.660156 C 220.46875 111.660156 217.648438 114.425781 217.648438 117.882812 C 217.648438 119.585938 218.339844 121.183594 219.5625 122.351562 L 252.496094 155.335938 L 219.5625 188.320312 C 217.0625 190.714844 217.011719 194.652344 219.402344 197.152344 C 221.746094 199.652344 225.734375 199.707031 228.183594 197.367188 C 228.289062 197.257812 228.289062 197.207031 228.339844 197.152344 L 265.371094 160.179688 C 267.976562 157.945312 268.347656 154.007812 266.113281 151.398438 C 266.007812 151.1875 265.847656 151.027344 265.6875 150.867188 L 228.339844 113.574219 C 227.222656 112.351562 225.574219 111.660156 223.925781 111.660156 Z M 111.355469 111.605469 L 111.355469 111.660156 C 109.703125 111.710938 108.160156 112.351562 107.042969 113.523438 L 70.070312 150.550781 C 69.539062 150.976562 69.113281 151.507812 68.792969 152.039062 C 68.6875 152.199219 68.632812 152.304688 68.527344 152.464844 C 68.472656 152.519531 68.472656 152.570312 68.421875 152.625 C 68.367188 152.730469 68.316406 152.835938 68.316406 152.941406 C 68.261719 153.050781 68.207031 153.15625 68.15625 153.261719 C 68.15625 153.367188 68.101562 153.421875 68.101562 153.527344 C 68.046875 153.636719 68.046875 153.742188 67.996094 153.792969 C 67.996094 153.902344 67.996094 153.953125 67.941406 154.058594 C 67.941406 154.113281 67.941406 154.167969 67.941406 154.21875 C 67.515625 156.507812 68.367188 158.796875 70.125 160.230469 L 107.042969 197.152344 C 109.4375 199.652344 113.375 199.707031 115.875 197.3125 C 118.375 194.917969 118.429688 190.980469 116.035156 188.480469 C 115.980469 188.429688 115.929688 188.375 115.875 188.269531 L 82.890625 155.285156 L 115.875 122.351562 C 118.375 119.957031 118.429688 115.96875 116.035156 113.523438 C 114.8125 112.246094 113.109375 111.554688 111.355469 111.605469 Z M 199.1875 99.105469 L 199.1875 99.15625 C 198.976562 99.15625 198.761719 99.15625 198.550781 99.15625 C 196.527344 99.265625 194.664062 100.382812 193.546875 102.136719 L 131.25 201.886719 C 129.335938 204.761719 130.082031 208.589844 132.898438 210.558594 C 135.773438 212.527344 139.65625 211.78125 141.570312 208.910156 C 141.679688 208.75 141.730469 208.644531 141.835938 208.484375 L 204.1875 108.785156 C 206.050781 105.859375 205.199219 102.03125 202.328125 100.113281 C 201.367188 99.53125 200.25 99.15625 199.1875 99.105469 Z M 86.5625 36.753906 C 83.105469 36.753906 80.339844 39.519531 80.339844 42.976562 C 80.339844 46.4375 83.105469 49.203125 86.5625 49.203125 C 90.019531 49.203125 92.785156 46.4375 92.785156 42.976562 C 92.785156 39.519531 90.019531 36.753906 86.5625 36.753906 Z M 61.613281 36.753906 C 58.152344 36.753906 55.332031 39.519531 55.332031 42.976562 C 55.332031 46.4375 58.152344 49.203125 61.613281 49.203125 C 65.015625 49.203125 67.835938 46.4375 67.835938 42.976562 C 67.835938 39.519531 65.015625 36.753906 61.613281 36.753906 Z M 36.605469 36.753906 C 33.203125 36.753906 30.382812 39.519531 30.382812 42.976562 C 30.382812 46.4375 33.203125 49.203125 36.605469 49.203125 C 40.066406 49.203125 42.886719 46.4375 42.886719 42.976562 C 42.886719 39.519531 40.066406 36.753906 36.605469 36.753906 Z M 17.878906 24.25 L 317.558594 24.25 L 317.558594 61.703125 L 17.878906 61.703125 Z M 11.65625 11.75 C 8.199219 11.75 5.433594 14.570312 5.433594 18.027344 L 5.433594 292.699219 C 5.433594 296.105469 8.199219 298.871094 11.65625 298.871094 L 64.695312 298.871094 L 64.695312 286.421875 L 17.878906 286.421875 L 17.878906 74.207031 L 317.558594 74.207031 L 317.558594 201.992188 C 317.664062 202.578125 317.929688 203.109375 317.984375 203.695312 C 321.496094 200.875 325.75 199.441406 330.007812 199.386719 L 330.007812 18.027344 C 330.007812 14.570312 327.1875 11.75 323.730469 11.75 Z M 180.195312 -113.058594 C 338.839844 -113.058594 467.371094 15.421875 467.371094 174.0625 C 467.371094 332.707031 338.839844 461.1875 180.195312 461.1875 C 21.550781 461.1875 -106.925781 332.707031 -106.925781 174.0625 C -106.925781 15.421875 21.550781 -113.058594 180.195312 -113.058594 Z M 180.195312 -125.5625 C 14.796875 -125.5625 -119.429688 8.664062 -119.429688 174.0625 C -119.429688 339.464844 14.796875 473.6875 180.195312 473.6875 C 345.59375 473.6875 479.820312 339.464844 479.820312 174.0625 C 479.820312 8.664062 345.59375 -125.5625 180.195312 -125.5625 " fill-opacity="1" fill-rule="nonzero"/></g></svg>